<?xml version="1.0" encoding="UTF-8"?>
<svg version="1.1" xmlns="http://www.w3.org/2000/svg" width="1254" height="1254">
<path d="M0 0 C0.98226563 0.4228125 1.96453125 0.845625 2.9765625 1.28125 C10.78867901 5.06627546 17.00697433 10.80256709 23 17 C23.56630127 17.58450928 24.13260254 18.16901855 24.71606445 18.77124023 C29.38787467 23.82965663 32.58757221 29.18846998 35.6875 35.3125 C36.14705078 36.18583984 36.60660156 37.05917969 37.08007812 37.95898438 C42.11965658 47.7290088 45.43249047 57.78626957 48.0625 68.4375 C48.44764771 69.99513062 48.44764771 69.99513062 48.84057617 71.58422852 C63.49005288 132.50353545 52.20338901 198.45544947 37 258.1875 C36.79662018 258.9893573 36.59324036 259.7912146 36.38369751 260.61737061 C33.52067395 271.84162424 30.22889176 282.88066258 26.66891479 293.90231323 C25.75282107 296.77514204 24.89586681 299.66485124 24.03515625 302.5546875 C21.48820758 310.8575042 18.45521869 318.98436445 15.4375 327.125 C15.13241516 327.94906342 14.82733032 328.77312683 14.51300049 329.62216187 C10.39679496 340.72244743 6.23457046 351.80528264 1.875 362.8125 C1.43857178 363.94381348 1.00214355 365.07512695 0.55249023 366.24072266 C0.14071533 367.26085449 -0.27105957 368.28098633 -0.6953125 369.33203125 C-1.04609863 370.21608643 -1.39688477 371.1001416 -1.75830078 372.01098633 C-3 374 -3 374 -4.86157227 374.86328125 C-7.37166896 375.02376237 -9.12161866 374.61258583 -11.51953125 373.85546875 C-12.80633789 373.45811523 -12.80633789 373.45811523 -14.11914062 373.05273438 C-15.00794922 372.76720703 -15.89675781 372.48167969 -16.8125 372.1875 C-18.5689168 371.63902304 -20.32542558 371.09084053 -22.08203125 370.54296875 C-24.81577991 369.68922106 -27.54135884 368.82170817 -30.26171875 367.92578125 C-42.53302369 364.88680604 -54.74696803 364.5970088 -67.3125 364.625 C-68.19095581 364.62521149 -69.06941162 364.62542297 -69.9744873 364.62564087 C-84.63160567 364.66074475 -98.66636192 365.76387554 -113 369 C-113.90073242 369.19787109 -114.80146484 369.39574219 -115.72949219 369.59960938 C-129.57750087 372.694752 -143.33588796 376.49090724 -156.14453125 382.69140625 C-158.60492146 383.81894486 -161.06352687 384.80903079 -163.5859375 385.78515625 C-181.97427951 393.09044054 -198.9270991 403.57206978 -215 415 C-215.61149902 415.43296387 -216.22299805 415.86592773 -216.85302734 416.31201172 C-224.9415616 422.08613464 -232.49394693 428.49964901 -240 435 C-240.60223389 435.51393311 -241.20446777 436.02786621 -241.82495117 436.55737305 C-254.97061524 447.87510434 -267.56345254 460.26801353 -277.77441406 474.32568359 C-279.04979995 476.06803348 -280.360719 477.77873522 -281.6796875 479.48828125 C-308.64993297 514.79243315 -329.89751101 560.96608376 -325.69140625 606.328125 C-324.56869789 613.44192312 -322.59079369 619.98622615 -317.0625 624.875 C-309.16236382 630.35672714 -300.83529141 629.78819487 -291.55859375 628.53515625 C-288.41004047 627.94062496 -285.29318192 627.27002021 -282.17773438 626.52148438 C-280.67907376 626.16261228 -279.17753499 625.81561868 -277.67382812 625.47851562 C-251.79706516 619.64857298 -226.39286455 609.9123516 -202.25 599.00878906 C-199.97824136 597.9902445 -197.69492191 597.00332382 -195.40625 596.0234375 C-184.2956532 591.23859934 -173.60549743 585.81347719 -163 580 C-162.17661133 579.55172852 -161.35322266 579.10345703 -160.50488281 578.64160156 C-134.71541799 564.52662603 -109.91884361 547.8696914 -87.76855469 528.49731445 C-86.41484695 527.35122258 -85.03546524 526.23539317 -83.64550781 525.13354492 C-76.43775555 519.40093746 -69.91636541 513.19429464 -63.44628906 506.65209961 C-61.74340608 504.9308349 -60.03253071 503.2178334 -58.3203125 501.50585938 C-52.67331546 495.84080725 -47.13861682 490.137486 -42 484 C-41.27554687 483.14535156 -40.55109375 482.29070312 -39.8046875 481.41015625 C-22.36504913 460.19310633 -7.54536088 437.8809206 6 414 C19.92690159 420.04317095 28.6233031 440.78384046 34.8125 453.5625 C35.35156982 454.67351074 35.89063965 455.78452148 36.44604492 456.92919922 C48.00908116 481.36138348 53.25079677 507.38477709 57 534 C57.13422363 534.94649414 57.26844727 535.89298828 57.40673828 536.86816406 C61.59664547 568.3484513 60.01015949 601.58849699 56 633 C55.77521973 634.79872559 55.77521973 634.79872559 55.54589844 636.63378906 C48.98177817 687.90639723 30.74865702 742.56717662 -10.94555664 776.1887207 C-35.28998775 794.99013473 -64.78560562 807.06837354 -95.734375 807.203125 C-96.76701477 807.20882507 -97.79965454 807.21452515 -98.86358643 807.22039795 C-101.04885851 807.22981953 -103.23414462 807.2363706 -105.41943359 807.24023438 C-108.69785855 807.24984711 -111.97563061 807.28085928 -115.25390625 807.3125 C-130.10965551 807.38736699 -144.84271978 806.95307702 -159 802 C-160.95075369 801.57522288 -162.90207009 801.15227738 -164.859375 800.75878906 C-197.94228772 794.05715293 -229.68170095 778.59255005 -257 759 C-257.7130127 758.48904785 -258.42602539 757.9780957 -259.16064453 757.45166016 C-267.54043554 751.39885075 -275.42847102 745.04840516 -283 738 C-284.28802136 736.89158321 -285.57959201 735.78727495 -286.875 734.6875 C-295.17631689 727.44700048 -302.9643494 719.47092333 -310 711 C-310.44923828 710.46987305 -310.89847656 709.93974609 -311.36132812 709.39355469 C-330.82310457 686.38988406 -345.71415522 660.91037564 -357 633 C-357.29600098 632.27506348 -357.59200195 631.55012695 -357.89697266 630.80322266 C-359.73965829 626.24815709 -361.41655899 621.65116017 -363 617 C-363.27408691 616.20319824 -363.54817383 615.40639648 -363.83056641 614.58544922 C-369.31217488 598.39103712 -372.78821117 581.90268303 -375.64135742 565.07580566 C-375.99452552 563.031686 -376.366509 560.99187721 -376.74414062 558.95214844 C-380.60169648 537.90112746 -381.45526575 517.13795476 -381.4375 495.75 C-381.43772156 494.50835083 -381.43794312 493.26670166 -381.43817139 491.98742676 C-381.38660781 464.88292141 -380.22175551 437.28216197 -373.67578125 410.86328125 C-373.0286429 408.12135982 -372.55115065 405.40891875 -372.125 402.625 C-363.39946482 348.65334285 -343.52755173 296.62544536 -319 248 C-318.50902832 247.02224609 -318.01805664 246.04449219 -317.51220703 245.03710938 C-310.92885553 231.99311986 -303.70551913 219.41080422 -296 207 C-295.4440918 206.10104004 -294.88818359 205.20208008 -294.31542969 204.27587891 C-286.36962599 191.46882263 -277.99782053 179.08937939 -269 167 C-268.19117871 165.90381369 -267.38256657 164.807473 -266.57421875 163.7109375 C-257.18214342 151.0658343 -247.34590112 138.87413963 -237 127 C-236.34128906 126.23945313 -235.68257812 125.47890625 -235.00390625 124.6953125 C-230.40286784 119.40358703 -225.70666563 114.19773026 -221 109 C-220.16597656 108.071875 -219.33195313 107.14375 -218.47265625 106.1875 C-209.48931822 96.26757312 -200.26338673 86.40353031 -190.03125 77.75390625 C-187.93276105 75.94194175 -185.91050483 74.05846259 -183.88769531 72.1628418 C-177.46399818 66.16317502 -170.71821371 60.7145733 -163.75146484 55.36181641 C-162.06163603 54.04792386 -160.39696434 52.70838071 -158.73828125 51.35546875 C-119.85310461 19.79135625 -51.73755186 -23.55123426 0 0 Z " fill="#F9A20E" transform="translate(816,171)"/>
<path d="M0 0 C-0.62164083 2.90286944 -1.53312059 5.24180968 -2.96875 7.8359375 C-3.37005127 8.56296875 -3.77135254 9.29 -4.18481445 10.0390625 C-4.61882568 10.80992187 -5.05283691 11.58078125 -5.5 12.375 C-5.95141357 13.179375 -6.40282715 13.98375 -6.86791992 14.8125 C-19.54061603 37.18783312 -34.93033812 57.37529852 -52.40625 76.18359375 C-54.69459025 78.66837284 -56.91087996 81.19950404 -59.125 83.75 C-69.06113144 94.81198806 -80.33541491 104.80922439 -92 114 C-93.13688425 114.92658766 -94.27220243 115.85509894 -95.40625 116.78515625 C-118.74403227 135.84969185 -144.23816168 151.37790544 -170.89282227 165.35791016 C-175.34424403 167.71040979 -179.76222565 170.12389961 -184.18017578 172.53857422 C-187.09484528 174.04915531 -189.97929825 175.21311304 -193.078125 176.26953125 C-195.30650796 177.11649795 -197.33283493 178.19307244 -199.4375 179.3125 C-204.73072956 182.03308848 -210.22290758 183.95133848 -215.84741211 185.85668945 C-219.64271438 187.14530236 -223.30352999 188.55944359 -226.9777832 190.16943359 C-241.12949717 195.98183622 -256.10561888 200.22008041 -270.875 204.125 C-272.01485352 204.43211914 -273.15470703 204.73923828 -274.32910156 205.05566406 C-275.39354492 205.32862305 -276.45798828 205.60158203 -277.5546875 205.8828125 C-278.48780762 206.12402832 -279.42092773 206.36524414 -280.38232422 206.61376953 C-283.23113625 207.03410348 -285.24231189 206.784708 -288 206 C-290.19019711 203.80980289 -289.24851166 199.4417741 -289.25317383 196.49169922 C-289.17720266 191.28068503 -288.58985805 186.25443479 -287.6875 181.125 C-287.51105957 180.11083008 -287.51105957 180.11083008 -287.33105469 179.07617188 C-286.49184075 174.6676158 -285.24551558 170.49735501 -283.77856445 166.25878906 C-283.02588006 164.07508383 -282.32617802 161.88136475 -281.640625 159.67578125 C-278.96582238 151.21420136 -275.98019262 143.3390906 -271.83203125 135.4765625 C-270.56167486 133.06586487 -269.3556181 130.67367453 -268.19921875 128.2109375 C-255.15731401 100.62888607 -234.22698131 75.65359957 -211 56 C-210.0925 55.21625 -209.185 54.4325 -208.25 53.625 C-151.90824258 5.67456815 -72.95240528 -25.56863105 0 0 Z " fill="#F9A20F" transform="translate(802,569)"/>
<path d="M0 0 C1.38348633 0.0163147 1.38348633 0.0163147 2.79492188 0.03295898 C19.57331727 0.42573944 32.81027239 7.49386313 44.5625 19.375 C45.38814453 20.15037109 45.38814453 20.15037109 46.23046875 20.94140625 C50.0253151 24.83799111 52.36541651 29.50796777 54.8125 34.3125 C55.1542627 34.98095947 55.49602539 35.64941895 55.84814453 36.33813477 C62.33469203 49.5875625 62.8964187 65.95545619 58.5 80 C53.14966962 95.57691125 42.71800603 107.28920337 28.5625 115.375 C27.76070313 115.88804687 26.95890625 116.40109375 26.1328125 116.9296875 C16.36493188 122.42226475 5.50648074 123.11494199 -5.4375 122.375 C-6.44425781 122.31570313 -7.45101562 122.25640625 -8.48828125 122.1953125 C-23.68924785 120.50860173 -37.13495421 111.30846991 -46.625 99.6875 C-57.73071265 83.84923934 -61.98300553 66.55712228 -58.78125 47.4609375 C-54.60948475 31.24140191 -44.37830134 17.58252251 -30.4375 8.375 C-20.75856338 2.68242029 -11.23301563 -0.18107754 0 0 Z " fill="#F9A210" transform="translate(396.4375,855.625)"/>
<path d="M0 0 C0.66 0.33 1.32 0.66 2 1 C-4.55666711 8.8098185 -11.62744309 17.09803365 -20 23 C-20.66 22.67 -21.32 22.34 -22 22 C-14.74 14.74 -7.48 7.48 0 0 Z " fill="#F9AC29" transform="translate(620,254)"/>
<path d="M0 0 C0.66 0.33 1.32 0.66 2 1 C-2.62 5.62 -7.24 10.24 -12 15 C-12.33 14.01 -12.66 13.02 -13 12 C-11.3989569 10.3719224 -9.79405264 8.74764115 -8.1875 7.125 C-7.29417969 6.22007812 -6.40085937 5.31515625 -5.48046875 4.3828125 C-3 2 -3 2 0 0 Z " fill="#F8AA28" transform="translate(585,631)"/>
<path d="M0 0 C3.51705958 0.65271556 6.89325077 1.51393024 10.3125 2.5625 C11.19550781 2.83191406 12.07851563 3.10132813 12.98828125 3.37890625 C13.65214844 3.58386719 14.31601562 3.78882813 15 4 C14.67 5.32 14.34 6.64 14 8 C13.67 7.34 13.34 6.68 13 6 C11.34817245 5.59955696 9.67557379 5.28520405 8 5 C5.32591525 4.36119087 2.66467156 3.67745887 0 3 C0 2.01 0 1.02 0 0 Z " fill="#F9AA24" transform="translate(787,565)"/>
<path d="M0 0 C0.33 0 0.66 0 1 0 C1.33 1.65 1.66 3.3 2 5 C2.33 5 2.66 5 3 5 C3.125 7.375 3.125 7.375 3 10 C2.34 10.66 1.68 11.32 1 12 C0.53709779 14.66242821 0.53709779 14.66242821 0.375 17.625 C0.30023437 18.62789062 0.22546875 19.63078125 0.1484375 20.6640625 C0.09945312 21.43492187 0.05046875 22.20578125 0 23 C-0.33 23 -0.66 23 -1 23 C-1.18451025 7.25512528 -1.18451025 7.25512528 0 0 Z " fill="#FAC767" transform="translate(514,751)"/>
<path d="M0 0 C0.66 0.99 1.32 1.98 2 3 C-0.31 7.29 -2.62 11.58 -5 16 C-6.4384431 11.68467071 -4.80819921 9.02343893 -3 5 C-2.04710343 3.30596166 -1.06639644 1.62498505 0 0 Z " fill="#FAA71D" transform="translate(515,674)"/>
<path d="M0 0 C0.66 0.33 1.32 0.66 2 1 C0.8758824 2.29243468 -0.24932592 3.58392075 -1.375 4.875 C-2.00148438 5.59429688 -2.62796875 6.31359375 -3.2734375 7.0546875 C-4.47426834 8.4076598 -5.7208345 9.7208345 -7 11 C-7.99 10.67 -8.98 10.34 -10 10 C-6.7 6.7 -3.4 3.4 0 0 Z " fill="#F9A720" transform="translate(360,868)"/>
<path d="M0 0 C0.66 0.99 1.32 1.98 2 3 C-0.31 5.97 -2.62 8.94 -5 12 C-5.66 11.34 -6.32 10.68 -7 10 C-3.535 5.05 -3.535 5.05 0 0 Z " fill="#F9AC25" transform="translate(549,335)"/>
<path d="M0 0 C4.29 0.33 8.58 0.66 13 1 C10 4 10 4 8.02734375 4.328125 C2.22222222 4.11111111 2.22222222 4.11111111 0 3 C0 2.01 0 1.02 0 0 Z " fill="#F8AB24" transform="translate(506,800)"/>
<path d="M0 0 C0.66 0.33 1.32 0.66 2 1 C1.71382813 1.69480469 1.42765625 2.38960937 1.1328125 3.10546875 C-0.05730592 6.1464265 -1.10263453 9.21132475 -2.125 12.3125 C-2.47820312 13.38113281 -2.83140625 14.44976563 -3.1953125 15.55078125 C-3.59363281 16.76314453 -3.59363281 16.76314453 -4 18 C-5.72251754 13.9154674 -4.07280563 10.63026304 -2.5625 6.75 C-2.31951172 6.1003125 -2.07652344 5.450625 -1.82617188 4.78125 C-1.22714006 3.18383183 -0.61485679 1.59139406 0 0 Z " fill="#FDE3B4" transform="translate(501,708)"/>
<path d="M0 0 C0.66 0.33 1.32 0.66 2 1 C1.04882866 2.1725131 0.08882991 3.33787015 -0.875 4.5 C-1.40867187 5.1496875 -1.94234375 5.799375 -2.4921875 6.46875 C-2.98976563 6.9740625 -3.48734375 7.479375 -4 8 C-4.66 8 -5.32 8 -6 8 C-4.55746343 4.63408134 -2.66735273 2.48952921 0 0 Z " fill="#F9A71E" transform="translate(594,281)"/>
<path d="M0 0 C0.99 0.33 1.98 0.66 3 1 C0.63707344 3.52588702 -0.66462511 4.88820837 -4 6 C-3.6875 4.125 -3.6875 4.125 -3 2 C-2.01 1.34 -1.02 0.68 0 0 Z " fill="#FCAC23" transform="translate(670,708)"/>
<path d="M0 0 C-1 3 -1 3 -4.0625 4.6875 C-5.031875 5.120625 -6.00125 5.55375 -7 6 C-6.75 4.125 -6.75 4.125 -6 2 C-3.85331506 0.61504198 -2.56128588 0 0 0 Z " fill="#F8A923" transform="translate(648,587)"/>
<path d="M0 0 C0.99 0.33 1.98 0.66 3 1 C-0.465 3.97 -0.465 3.97 -4 7 C-4 4 -4 4 -2 1.8125 C-1.34 1.214375 -0.68 0.61625 0 0 Z " fill="#F9A821" transform="translate(585,291)"/>
<path d="M0 0 C-0.33 0.99 -0.66 1.98 -1 3 C-3.64 3.33 -6.28 3.66 -9 4 C-3.7826087 0 -3.7826087 0 0 0 Z " fill="#F7AE2D" transform="translate(634,762)"/>
<path d="M0 0 C0.33 1.32 0.66 2.64 1 4 C0.34 4 -0.32 4 -1 4 C-1 4.66 -1 5.32 -1 6 C-2.65 6.66 -4.3 7.32 -6 8 C-4.02 5.36 -2.04 2.72 0 0 Z " fill="#F9A925" transform="translate(561,656)"/>
<path d="M0 0 C0 0.66 0 1.32 0 2 C-3.4352048 4.29013653 -4.985331 4.17842973 -9 4 C-6.10130984 1.70103884 -3.84906588 0 0 0 Z " fill="#F8AF30" transform="translate(674,575)"/>
<path d="M0 0 C0.66 0.33 1.32 0.66 2 1 C-1.32307692 4.93846154 -1.32307692 4.93846154 -4.75 5.25 C-5.4925 5.1675 -6.235 5.085 -7 5 C-4.702779 3.25728062 -2.40133271 1.60088848 0 0 Z " fill="#F9AE2B" transform="translate(665,744)"/>
<path d="M0 0 C0.66 0.99 1.32 1.98 2 3 C0.68 4.65 -0.64 6.3 -2 8 C-2.66 7.67 -3.32 7.34 -4 7 C-2.68 4.69 -1.36 2.38 0 0 Z " fill="#F8AC2B" transform="translate(545,677)"/>
<path d="M0 0 C0.99 0.66 1.98 1.32 3 2 C2.34 3.65 1.68 5.3 1 7 C0.01 6.67 -0.98 6.34 -2 6 C-1.34 4.02 -0.68 2.04 0 0 Z " fill="#FBAA22" transform="translate(812,538)"/>
<path d="M0 0 C-0.33 0.66 -0.66 1.32 -1 2 C-4.3 1.67 -7.6 1.34 -11 1 C-11 0.67 -11 0.34 -11 0 C-7.01803543 -1.05404945 -4.01804691 -0.84098656 0 0 Z " fill="#F8A924" transform="translate(808,168)"/>
</svg>
