<?xml version="1.0" encoding="UTF-8"?>
<svg version="1.1" xmlns="http://www.w3.org/2000/svg" width="1536" height="1024">
<path d="M0 0 C23.88529302 22.52430766 30.34053326 56.52678183 33.015625 87.83984375 C33.24102412 91.33750584 33.24102412 91.33750584 34.375 94.375 C34.46997929 96.67422457 34.50294538 98.97615871 34.50439453 101.27734375 C34.50702301 102.32415817 34.50702301 102.32415817 34.50970459 103.39212036 C34.51410577 105.69893887 34.51119121 108.00568071 34.5078125 110.3125 C34.50848604 111.91528335 34.50945648 113.51806661 34.51071167 115.12084961 C34.51218629 118.47999036 34.51004163 121.83910452 34.50537109 125.19824219 C34.49967395 129.50589616 34.50295421 133.81348784 34.50894356 138.12113953 C34.51255551 141.43079092 34.51140766 144.74042751 34.50881577 148.05007935 C34.50814826 149.63851936 34.50896879 151.22696072 34.51129532 152.81539917 C34.51383221 155.0345211 34.50996657 157.25354186 34.50439453 159.47265625 C34.50320114 161.36769897 34.50320114 161.36769897 34.50198364 163.30102539 C34.375 166.375 34.375 166.375 33.375 169.375 C33.14512469 171.48847504 32.95927232 173.60683456 32.796875 175.7265625 C32.69084961 177.03584717 32.58482422 178.34513184 32.47558594 179.6940918 C32.39093079 180.74444107 32.39093079 180.74444107 32.30456543 181.81600952 C26.97332016 246.65805029 7.70762581 307.24423683 -19.3125 366.1875 C-19.81765137 367.29109863 -20.32280273 368.39469727 -20.84326172 369.53173828 C-21.54539795 371.0416333 -21.54539795 371.0416333 -22.26171875 372.58203125 C-22.67123779 373.4635083 -23.08075684 374.34498535 -23.50268555 375.25317383 C-24.625 377.375 -24.625 377.375 -26.625 379.375 C-30.98239059 378.96060839 -35.05894178 377.72042102 -39.25 376.5 C-101.10854874 359.3488457 -171.78457918 374.39965286 -226.625 405.375 C-233.46214652 409.45420047 -240.06826976 413.86263945 -246.625 418.375 C-247.62249268 419.05393311 -247.62249268 419.05393311 -248.64013672 419.74658203 C-257.44446387 425.75812649 -265.59836306 432.36658691 -273.625 439.375 C-274.36363281 440.01308594 -275.10226562 440.65117188 -275.86328125 441.30859375 C-277.79524299 442.98502548 -279.71319823 444.67562065 -281.625 446.375 C-282.4603125 447.1175 -283.295625 447.86 -284.15625 448.625 C-295.67716193 458.92605067 -306.15735537 470.14971889 -315.625 482.375 C-316.10308105 482.99165527 -316.58116211 483.60831055 -317.07373047 484.24365234 C-346.33115156 522.40109046 -364.27646326 569.06848177 -365 617.3125 C-365.02618408 618.35510986 -365.05236816 619.39771973 -365.0793457 620.47192383 C-365.0965621 628.4520408 -363.70703481 635.52245648 -358.625 641.875 C-333.50182078 654.43658961 -293.48961806 636.32351036 -269.09765625 628.2265625 C-251.49242144 623.71312453 -251.49242144 623.71312453 -237.625 614.375 C-236.83480469 614.27058594 -236.04460937 614.16617188 -235.23046875 614.05859375 C-230.03388296 613.07332559 -225.66437081 610.75828401 -220.9375 608.4375 C-219.9165625 607.94096924 -218.895625 607.44443848 -217.84375 606.93286133 C-214.76427107 605.42643815 -211.69298118 603.90468803 -208.625 602.375 C-207.78114746 601.95508789 -206.93729492 601.53517578 -206.06787109 601.10253906 C-178.77007426 587.40580901 -153.54405715 570.2999065 -129.625 551.375 C-128.92810059 550.82376465 -128.23120117 550.2725293 -127.51318359 549.70458984 C-112.99075671 538.14333749 -99.6535555 525.45506389 -86.5 512.375 C-85.81357422 511.69332764 -85.12714844 511.01165527 -84.41992188 510.30932617 C-79.9523702 505.82697765 -75.75230443 501.17035761 -71.625 496.375 C-70.68762007 495.31514673 -69.74889989 494.25647673 -68.80859375 493.19921875 C-51.59445959 473.63770266 -37.18221668 451.91893225 -24.25585938 429.3449707 C-23.69576172 428.3674585 -23.13566406 427.38994629 -22.55859375 426.3828125 C-22.06415771 425.51285645 -21.56972168 424.64290039 -21.06030273 423.74658203 C-19.70288596 421.50369266 -18.23689847 419.4403103 -16.625 417.375 C-11.14412265 418.04362937 -9.34353531 420.3297864 -5.9140625 424.43359375 C43.61618186 488.07911252 45.21246021 577.02374598 35.75146484 653.89819336 C31.42004827 687.94658527 24.71922286 721.42307462 9.375 752.375 C9.05063965 753.0453125 8.7262793 753.715625 8.39208984 754.40625 C0.46433897 770.69693642 -10.47497039 785.0126319 -22.625 798.375 C-23.3365625 799.17035156 -24.048125 799.96570313 -24.78125 800.78515625 C-49.89413073 827.39515102 -86.90946719 842.53791254 -123.1328125 844.28515625 C-124.28523438 844.31480469 -125.43765625 844.34445312 -126.625 844.375 C-127.28467773 844.39546387 -127.94435547 844.41592773 -128.62402344 844.43701172 C-180.27110249 845.87760567 -230.66307413 828.66324376 -274.625 802.375 C-275.39360352 801.91657715 -276.16220703 801.4581543 -276.95410156 800.98583984 C-288.78832742 793.86361226 -299.83076352 785.98152759 -310.625 777.375 C-311.63046875 776.58351563 -312.6359375 775.79203125 -313.671875 774.9765625 C-330.67882793 761.36116955 -347.4490527 745.75993047 -360.625 728.375 C-361.3571875 727.42496094 -362.089375 726.47492187 -362.84375 725.49609375 C-370.60974366 715.2965781 -377.94366033 704.93152824 -384.21484375 693.73828125 C-385.54222171 691.29451396 -385.54222171 691.29451396 -387.625 689.375 C-388.30892483 688.07325658 -388.9420591 686.74443044 -389.54296875 685.40234375 C-390.08932983 684.18780518 -390.08932983 684.18780518 -390.64672852 682.94873047 C-391.03143311 682.07877441 -391.4161377 681.20881836 -391.8125 680.3125 C-392.20816162 679.42449707 -392.60382324 678.53649414 -393.01147461 677.62158203 C-395.63808847 671.69283376 -398.20054453 665.73866185 -400.6875 659.75 C-400.98615967 659.03448975 -401.28481934 658.31897949 -401.5925293 657.58178711 C-403.625 652.6204709 -403.625 652.6204709 -403.625 650.375 C-404.285 650.045 -404.945 649.715 -405.625 649.375 C-406.52526351 645.77394596 -407.16689087 642.14915358 -407.84375 638.5 C-408.1015625 637.46875 -408.359375 636.4375 -408.625 635.375 C-409.285 635.045 -409.945 634.715 -410.625 634.375 C-411.15893555 632.46777344 -411.15893555 632.46777344 -411.57421875 629.984375 C-412.23704623 626.34172815 -412.99805601 622.77951468 -413.95703125 619.203125 C-423.07726171 584.99995223 -426.95290949 549.72136013 -427.625 514.375 C-427.65787109 512.71235107 -427.65787109 512.71235107 -427.69140625 511.01611328 C-428.8585355 441.05644075 -415.60965038 371.99036927 -390.47607422 306.81640625 C-389.51527585 304.49115947 -389.51527585 304.49115947 -389.625 302.375 C-388.965 302.375 -388.305 302.375 -387.625 302.375 C-387.51414062 301.68164551 -387.40328125 300.98829102 -387.2890625 300.27392578 C-386.53181606 296.96821099 -385.35158103 294.10326322 -384 290.9921875 C-383.73747437 290.38501389 -383.47494873 289.77784027 -383.20446777 289.15226746 C-382.35036243 287.18229812 -381.48842073 285.21590272 -380.625 283.25 C-380.32988525 282.57516571 -380.03477051 281.90033142 -379.73071289 281.20504761 C-377.71100456 276.58809236 -375.67364318 271.97918194 -373.625 267.375 C-373.20089844 266.42028809 -372.77679687 265.46557617 -372.33984375 264.48193359 C-366.28325459 250.96803714 -359.04067575 238.18235932 -351.625 225.375 C-350.40416854 223.26298848 -349.18390016 221.15067967 -347.96704102 219.03637695 C-347.02045999 217.39394552 -346.06718836 215.75537487 -345.11328125 214.1171875 C-343.58204045 211.45517563 -343.58204045 211.45517563 -342.66796875 208.7578125 C-341.42934295 205.92799326 -339.81173582 204.55395384 -337.625 202.375 C-335.80039253 199.77961563 -334.15273431 197.08214937 -332.5 194.375 C-332.05785156 193.6634375 -331.61570312 192.951875 -331.16015625 192.21875 C-329.16770084 188.99229653 -327.28651876 185.78672733 -325.625 182.375 C-324.965 182.375 -324.305 182.375 -323.625 182.375 C-323.35421631 181.63564209 -323.08343262 180.89628418 -322.80444336 180.13452148 C-321.67882622 177.50093619 -320.45595841 175.5122023 -318.75390625 173.22265625 C-318.18534912 172.45348877 -317.61679199 171.68432129 -317.03100586 170.8918457 C-316.42264893 170.08191162 -315.81429199 169.27197754 -315.1875 168.4375 C-314.55787354 167.5921167 -313.92824707 166.7467334 -313.27954102 165.87573242 C-307.84853159 158.61123292 -302.30031236 151.44970445 -296.625 144.375 C-296.10550781 143.72402344 -295.58601562 143.07304687 -295.05078125 142.40234375 C-288.85058108 134.64104805 -282.56649752 127.03792589 -275.81640625 119.74609375 C-273.90065783 117.67326079 -272.03385556 115.57193941 -270.1875 113.4375 C-267.17508455 109.97429554 -264.09765698 106.57431982 -261 103.1875 C-260.54439697 102.68806885 -260.08879395 102.1886377 -259.61938477 101.67407227 C-256.69893226 98.49086909 -253.69578646 95.41281789 -250.625 92.375 C-249.62181217 91.37297983 -248.61923535 90.37034768 -247.6171875 89.3671875 C-244.61979167 86.36979167 -241.62239583 83.37239583 -238.625 80.375 C-237.80128906 79.5396875 -237.80128906 79.5396875 -236.9609375 78.6875 C-234.80899243 76.57330836 -232.51965824 74.62558243 -230.2421875 72.6484375 C-228.24123034 70.91029262 -226.24771677 69.16477962 -224.2578125 67.4140625 C-213.86318905 58.29898899 -203.21355023 49.56762564 -191.98046875 41.49609375 C-190.46893043 40.39969626 -190.46893043 40.39969626 -189.625 38.375 C-187.94640735 37.3907817 -186.26416122 36.41201412 -184.56005859 35.47265625 C-181.57250084 33.77797297 -178.76928598 31.81369634 -175.9375 29.875 C-127.96400334 -2.37264456 -52.86529715 -45.18776437 0 0 Z " fill="#FEBB0A" transform="translate(997.625,73.625)"/>
<path d="M0 0 C-10.75869227 27.99180631 -30.71439425 54.2811984 -50.60205078 76.40478516 C-52.03411273 78.0389264 -53.38881993 79.72150045 -54.74609375 81.41796875 C-55.48988281 82.27003906 -56.23367188 83.12210938 -57 84 C-57.66 84 -58.32 84 -59 84 C-59.21398437 84.54011719 -59.42796875 85.08023438 -59.6484375 85.63671875 C-61.48636733 88.85043999 -63.99670157 91.24916258 -66.625 93.8125 C-67.16914551 94.3494751 -67.71329102 94.8864502 -68.27392578 95.43969727 C-71.66332971 98.76131312 -75.12904645 101.95398623 -78.74609375 105.02734375 C-81.2474453 107.21656825 -83.66465973 109.48276091 -86.08569336 111.76000977 C-91.84880955 117.17513555 -97.65673632 122.26910319 -104 127 C-105.22166016 127.94845315 -106.44154021 128.89920129 -107.66015625 129.8515625 C-128.77790037 146.29708406 -151.15654747 161.09283247 -174.73193359 173.77783203 C-177.03164625 175.01705286 -179.32230467 176.27206039 -181.61328125 177.52734375 C-192.2843444 183.31626478 -203.18444125 188.30700441 -214.40893555 192.92602539 C-216.19180417 193.66500957 -217.96907054 194.41760908 -219.74145508 195.18139648 C-227.96017405 198.69797005 -236.3331931 201.62959236 -244.8125 204.4375 C-245.53310608 204.67711456 -246.25371216 204.91672913 -246.99615479 205.16360474 C-259.53567655 209.32077583 -272.1274568 213.0063853 -285 216 C-285.90041016 216.21269531 -286.80082031 216.42539062 -287.72851562 216.64453125 C-290.35725155 217.25884516 -292.98937131 217.85352936 -295.625 218.4375 C-296.40149902 218.614021 -297.17799805 218.79054199 -297.97802734 218.97241211 C-301.95172027 219.81073084 -305.07928295 220.18551326 -309 219 C-316.79051395 195.40148218 -294.98925197 153.74330925 -284.41723633 132.69726562 C-276.75430972 117.83693863 -267.2124012 104.2056912 -257 91 C-256.32710937 90.09894531 -255.65421875 89.19789063 -254.9609375 88.26953125 C-254.33445312 87.43808594 -253.70796875 86.60664062 -253.0625 85.75 C-252.51722656 85.02296875 -251.97195313 84.2959375 -251.41015625 83.546875 C-250.94480469 83.03640625 -250.47945312 82.5259375 -250 82 C-249.34 82 -248.68 82 -248 82 C-247.7313916 81.41065674 -247.4627832 80.82131348 -247.18603516 80.21411133 C-245.99411079 77.98900592 -244.74022954 76.41454185 -243.0234375 74.57421875 C-242.43916992 73.94596191 -241.85490234 73.31770508 -241.25292969 72.67041016 C-240.63321289 72.0160498 -240.01349609 71.36168945 -239.375 70.6875 C-238.73981445 70.01251465 -238.10462891 69.3375293 -237.45019531 68.64208984 C-233.75329512 64.74778236 -230.01716985 61.00405309 -225.87890625 57.57421875 C-224.53864547 56.45129755 -223.23731217 55.28122894 -221.96484375 54.08203125 C-179.48252743 14.07724282 -56.30362826 -45.35570054 0 0 Z " fill="#FEBA09" transform="translate(961,477)"/>
<path d="M0 0 C0.99257813 0.06960938 1.98515625 0.13921875 3.0078125 0.2109375 C20.99087532 2.19923683 37.51673544 12.1930216 48.76953125 26.203125 C60.88783899 42.57208098 64.98108976 60.99666985 64 81 C63.34 81 62.68 81 62 81 C62 82.155 62 83.31 62 84.5 C60.35235196 99.18959451 49.10880008 113.02409603 38.26171875 122.1953125 C21.75825094 135.36388267 3.68907308 139.25207647 -17 138 C-32.99761645 136.13981204 -45.0818646 128.23532894 -56 117 C-56.61617188 116.36964844 -57.23234375 115.73929688 -57.8671875 115.08984375 C-68.93428611 102.96190927 -74.43490663 86.48206099 -73.97900391 70.1706543 C-72.9302796 49.54328112 -63.90933721 31.17513118 -49 17 C-35.31125377 5.25684158 -18.12533537 -1.3863571 0 0 Z " fill="#FEBE0C" transform="translate(528,773)"/>
<path d="M0 0 C0.33 0 0.66 0 1 0 C1.04632061 8.16235313 1.08186773 16.32465143 1.10362434 24.48710346 C1.11406591 28.27717541 1.12823182 32.0671575 1.15087891 35.85717773 C1.17259413 39.51409477 1.18456582 43.17092531 1.18975449 46.82790184 C1.19345263 48.22377064 1.20067411 49.61963466 1.21146011 51.01546669 C1.22595663 52.96900449 1.22681676 54.92262913 1.22705078 56.8762207 C1.231492 57.9887471 1.23593323 59.1012735 1.24050903 60.24751282 C1 63 1 63 -1 66 C-1.495 63.525 -1.495 63.525 -2 61 C-2.33 61 -2.66 61 -3 61 C-3.0580476 57.72924117 -3.09361165 54.45861476 -3.125 51.1875 C-3.14175781 50.25873047 -3.15851563 49.32996094 -3.17578125 48.37304688 C-3.18222656 47.48037109 -3.18867187 46.58769531 -3.1953125 45.66796875 C-3.20578613 44.84578857 -3.21625977 44.0236084 -3.22705078 43.17651367 C-3 41 -3 41 -1 38 C-0.75878651 35.10340651 -0.62700558 32.2946645 -0.5859375 29.39453125 C-0.56657135 28.55532639 -0.5472052 27.71612152 -0.5272522 26.85148621 C-0.46748787 24.17192742 -0.42108388 21.4923256 -0.375 18.8125 C-0.3368173 16.99542401 -0.29776539 15.17836606 -0.2578125 13.36132812 C-0.16178897 8.90769868 -0.07774641 4.45398449 0 0 Z " fill="#FEC414" transform="translate(1031,177)"/>
<path d="M0 0 C12.87 0.495 12.87 0.495 26 1 C26.33 1.66 26.66 2.32 27 3 C22.32415345 4.18781586 17.78859821 4.1483211 13 4.125 C11.80890625 4.13080078 11.80890625 4.13080078 10.59375 4.13671875 C6.5970522 4.13005759 2.90052465 3.99085908 -1 3 C-0.67 2.01 -0.34 1.02 0 0 Z " fill="#FEB004" transform="translate(849,914)"/>
<path d="M0 0 C0.33 0 0.66 0 1 0 C1.12198574 16.36860992 0.92545946 32.65572484 0 49 C-0.33 49 -0.66 49 -1 49 C-2.47920363 32.38537355 -2.47920363 32.38537355 -2 25 C-1.67 24.67 -1.34 24.34 -1 24 C-0.84235595 22.22130274 -0.74899323 20.43681524 -0.68359375 18.65234375 C-0.64169922 17.57275391 -0.59980469 16.49316406 -0.55664062 15.38085938 C-0.51732422 14.24455078 -0.47800781 13.10824219 -0.4375 11.9375 C-0.39431641 10.79732422 -0.35113281 9.65714844 -0.30664062 8.48242188 C-0.20017161 5.65507805 -0.09815793 2.82764262 0 0 Z " fill="#FDC215" transform="translate(1036,651)"/>
<path d="M0 0 C3.63 1.32 7.26 2.64 11 4 C10.01 4.495 10.01 4.495 9 5 C8.67 5.66 8.34 6.32 8 7 C3.545 5.02 3.545 5.02 -1 3 C-0.67 2.01 -0.34 1.02 0 0 Z " fill="#FEC513" transform="translate(970,58)"/>
<path d="M0 0 C6.875 3.75 6.875 3.75 8 6 C7.34 6.66 6.68 7.32 6 8 C2.535 6.02 2.535 6.02 -1 4 C-0.67 2.68 -0.34 1.36 0 0 Z " fill="#FEC512" transform="translate(985,65)"/>
<path d="M0 0 C0.33 0 0.66 0 1 0 C1 3.63 1 7.26 1 11 C1.66 11.33 2.32 11.66 3 12 C1.35 11.67 -0.3 11.34 -2 11 C-1.85957123 9.35369672 -1.71250671 7.70795821 -1.5625 6.0625 C-1.48128906 5.14597656 -1.40007813 4.22945312 -1.31640625 3.28515625 C-1 1 -1 1 0 0 Z " fill="#FEB001" transform="translate(653,684)"/>
<path d="M0 0 C0.33 0 0.66 0 1 0 C1.08133791 1.91595968 1.13934367 3.83291932 1.1875 5.75 C1.22230469 6.81734375 1.25710938 7.8846875 1.29296875 8.984375 C0.97082786 12.30027855 0.22851086 13.59016673 -2 16 C-3.25 9.375 -3.25 9.375 -1 6 C-0.60986284 4.0103005 -0.26797351 2.00980131 0 0 Z " fill="#FDC114" transform="translate(1035,628)"/>
<path d="M0 0 C0.66 0 1.32 0 2 0 C1.609375 5.95703125 1.609375 5.95703125 1 8 C-0.32 8.99 -1.64 9.98 -3 11 C-2.01 7.37 -1.02 3.74 0 0 Z " fill="#FEB200" transform="translate(663,641)"/>
<path d="M0 0 C0.66 0.66 1.32 1.32 2 2 C-1.465 4.97 -1.465 4.97 -5 8 C-5.66 7.34 -6.32 6.68 -7 6 C-4.69 4.02 -2.38 2.04 0 0 Z " fill="#FEB301" transform="translate(726,507)"/>
<path d="M0 0 C-1 3 -1 3 -3.0625 4.1875 C-3.701875 4.455625 -4.34125 4.72375 -5 5 C-5.66 4.34 -6.32 3.68 -7 3 C-4.49955934 -0.00052879 -4.2621484 0 0 0 Z " fill="#FEB301" transform="translate(746,697)"/>
<path d="M0 0 C2.97 0.33 5.94 0.66 9 1 C6.61426621 2.89213369 4.92824652 4.02391783 2 5 C1.34 4.67 0.68 4.34 0 4 C0 2.68 0 1.36 0 0 Z " fill="#FFC614" transform="translate(952,54)"/>
<path d="M0 0 C0.66 0 1.32 0 2 0 C1.67 2.31 1.34 4.62 1 7 C0.01 6.67 -0.98 6.34 -2 6 C-1.34 4.02 -0.68 2.04 0 0 Z " fill="#FEB301" transform="translate(637,639)"/>
<path d="M0 0 C0.33 0 0.66 0 1 0 C1 2.31 1 4.62 1 7 C0.01 7 -0.98 7 -2 7 C-1.125 1.125 -1.125 1.125 0 0 Z " fill="#FEB101" transform="translate(635,649)"/>
<path d="M0 0 C0.66 0 1.32 0 2 0 C1.67 0.66 1.34 1.32 1 2 C0.67 1.34 0.34 0.68 0 0 Z " fill="#8F8C84" transform="translate(85,869)"/>
<path d="M0 0 C3 1 3 1 3 1 Z " fill="#FFBF0D" transform="translate(800,488)"/>
<path d="" fill="#FEBE14" transform="translate(0,0)"/>
<path d="M0 0 C2 1 2 1 2 1 Z " fill="#FDB808" transform="translate(670,695)"/>
<path d="M0 0 C2 1 2 1 2 1 Z " fill="#FFBD09" transform="translate(777,680)"/>
<path d="M0 0 C2 1 2 1 2 1 Z " fill="#FFBE0A" transform="translate(793,672)"/>
<path d="" fill="#FDC21B" transform="translate(0,0)"/>
<path d="" fill="#FEBF19" transform="translate(0,0)"/>
<path d="M0 0 C2 1 2 1 2 1 Z " fill="#FFBA0B" transform="translate(760,512)"/>
<path d="" fill="#FCC625" transform="translate(0,0)"/>
<path d="" fill="#8D8C85" transform="translate(0,0)"/>
<path d="" fill="#8D8C86" transform="translate(0,0)"/>
<path d="" fill="#7D765F" transform="translate(0,0)"/>
<path d="" fill="#9F853B" transform="translate(0,0)"/>
<path d="" fill="#C09A2F" transform="translate(0,0)"/>
<path d="" fill="#B8943D" transform="translate(0,0)"/>
<path d="" fill="#8D8A87" transform="translate(0,0)"/>
<path d="" fill="#7D7559" transform="translate(0,0)"/>
<path d="" fill="#85784C" transform="translate(0,0)"/>
<path d="" fill="#B18F34" transform="translate(0,0)"/>
<path d="" fill="#85847C" transform="translate(0,0)"/>
<path d="" fill="#B4943A" transform="translate(0,0)"/>
<path d="" fill="#7D7758" transform="translate(0,0)"/>
<path d="" fill="#A0883B" transform="translate(0,0)"/>
<path d="" fill="#8D8C85" transform="translate(0,0)"/>
<path d="" fill="#A4A3A3" transform="translate(0,0)"/>
<path d="" fill="#BF9A30" transform="translate(0,0)"/>
<path d="" fill="#B7953B" transform="translate(0,0)"/>
<path d="" fill="#8D8A84" transform="translate(0,0)"/>
<path d="" fill="#7C7457" transform="translate(0,0)"/>
<path d="" fill="#8C8B84" transform="translate(0,0)"/>
<path d="" fill="#7D7458" transform="translate(0,0)"/>
<path d="" fill="#B08F34" transform="translate(0,0)"/>
<path d="" fill="#81764C" transform="translate(0,0)"/>
<path d="" fill="#7E7658" transform="translate(0,0)"/>
<path d="" fill="#85837A" transform="translate(0,0)"/>
<path d="" fill="#A0873A" transform="translate(0,0)"/>
<path d="" fill="#8C8C86" transform="translate(0,0)"/>
<path d="" fill="#A5A4A1" transform="translate(0,0)"/>
<path d="" fill="#B8973A" transform="translate(0,0)"/>
<path d="" fill="#8C8A84" transform="translate(0,0)"/>
<path d="" fill="#7D7457" transform="translate(0,0)"/>
<path d="" fill="#907E42" transform="translate(0,0)"/>
<path d="" fill="#818073" transform="translate(0,0)"/>
<path d="" fill="#C89E2E" transform="translate(0,0)"/>
<path d="" fill="#8C8B83" transform="translate(0,0)"/>
<path d="" fill="#8D8A85" transform="translate(0,0)"/>
<path d="" fill="#969592" transform="translate(0,0)"/>
<path d="" fill="#7C755D" transform="translate(0,0)"/>
<path d="" fill="#C29B2F" transform="translate(0,0)"/>
<path d="" fill="#BB9839" transform="translate(0,0)"/>
<path d="" fill="#8B8B84" transform="translate(0,0)"/>
<path d="" fill="#807F74" transform="translate(0,0)"/>
<path d="" fill="#7A755B" transform="translate(0,0)"/>
<path d="" fill="#A18739" transform="translate(0,0)"/>
<path d="" fill="#7E7D6E" transform="translate(0,0)"/>
<path d="" fill="#8C8A86" transform="translate(0,0)"/>
<path d="" fill="#969692" transform="translate(0,0)"/>
<path d="" fill="#C29C2E" transform="translate(0,0)"/>
<path d="" fill="#BD9839" transform="translate(0,0)"/>
<path d="" fill="#8B8985" transform="translate(0,0)"/>
<path d="" fill="#7D755C" transform="translate(0,0)"/>
<path d="" fill="#917D41" transform="translate(0,0)"/>
<path d="" fill="#B09134" transform="translate(0,0)"/>
<path d="" fill="#85837A" transform="translate(0,0)"/>
<path d="" fill="#8C8B85" transform="translate(0,0)"/>
<path d="" fill="#A5A4A2" transform="translate(0,0)"/>
<path d="" fill="#8A7845" transform="translate(0,0)"/>
<path d="" fill="#C39C2F" transform="translate(0,0)"/>
<path d="" fill="#C09A39" transform="translate(0,0)"/>
<path d="" fill="#8B8984" transform="translate(0,0)"/>
<path d="" fill="#907D41" transform="translate(0,0)"/>
<path d="" fill="#B39234" transform="translate(0,0)"/>
<path d="" fill="#907C40" transform="translate(0,0)"/>
<path d="" fill="#8D8C83" transform="translate(0,0)"/>
<path d="" fill="#A0863A" transform="translate(0,0)"/>
<path d="" fill="#838174" transform="translate(0,0)"/>
<path d="" fill="#8A8B84" transform="translate(0,0)"/>
<path d="" fill="#A5A4A4" transform="translate(0,0)"/>
<path d="" fill="#C89F2C" transform="translate(0,0)"/>
<path d="" fill="#C49D36" transform="translate(0,0)"/>
<path d="" fill="#827749" transform="translate(0,0)"/>
<path d="" fill="#8B8A84" transform="translate(0,0)"/>
<path d="" fill="#959490" transform="translate(0,0)"/>
<path d="" fill="#C7A136" transform="translate(0,0)"/>
<path d="" fill="#807D72" transform="translate(0,0)"/>
<path d="" fill="#927F3F" transform="translate(0,0)"/>
<path d="" fill="#807E72" transform="translate(0,0)"/>
<path d="" fill="#817F72" transform="translate(0,0)"/>
<path d="" fill="#807448" transform="translate(0,0)"/>
<path d="" fill="#828175" transform="translate(0,0)"/>
<path d="" fill="#8A8A84" transform="translate(0,0)"/>
<path d="" fill="#CCA335" transform="translate(0,0)"/>
<path d="" fill="#8B8983" transform="translate(0,0)"/>
<path d="" fill="#807E72" transform="translate(0,0)"/>
<path d="" fill="#8A8B86" transform="translate(0,0)"/>
<path d="" fill="#7A7153" transform="translate(0,0)"/>
<path d="" fill="#937E3F" transform="translate(0,0)"/>
<path d="" fill="#89867A" transform="translate(0,0)"/>
<path d="" fill="#BC9632" transform="translate(0,0)"/>
<path d="" fill="#7B7353" transform="translate(0,0)"/>
<path d="" fill="#848278" transform="translate(0,0)"/>
<path d="" fill="#A98C36" transform="translate(0,0)"/>
<path d="" fill="#8A8A84" transform="translate(0,0)"/>
<path d="" fill="#7D7769" transform="translate(0,0)"/>
<path d="" fill="#D1A529" transform="translate(0,0)"/>
<path d="" fill="#D2A733" transform="translate(0,0)"/>
<path d="" fill="#8A8983" transform="translate(0,0)"/>
<path d="" fill="#7B7152" transform="translate(0,0)"/>
<path d="" fill="#979690" transform="translate(0,0)"/>
<path d="" fill="#8D7C3F" transform="translate(0,0)"/>
<path d="" fill="#7C7353" transform="translate(0,0)"/>
<path d="" fill="#AC8D37" transform="translate(0,0)"/>
<path d="" fill="#777259" transform="translate(0,0)"/>
<path d="" fill="#D7A828" transform="translate(0,0)"/>
<path d="" fill="#D9AB32" transform="translate(0,0)"/>
<path d="" fill="#8B8983" transform="translate(0,0)"/>
<path d="" fill="#96813C" transform="translate(0,0)"/>
<path d="" fill="#858276" transform="translate(0,0)"/>
<path d="" fill="#88857D" transform="translate(0,0)"/>
<path d="" fill="#7B796B" transform="translate(0,0)"/>
<path d="" fill="#7C765A" transform="translate(0,0)"/>
<path d="" fill="#7E7D6D" transform="translate(0,0)"/>
<path d="" fill="#8D8B84" transform="translate(0,0)"/>
<path d="" fill="#787157" transform="translate(0,0)"/>
<path d="" fill="#DFAE2E" transform="translate(0,0)"/>
<path d="" fill="#8C8A83" transform="translate(0,0)"/>
<path d="" fill="#807D71" transform="translate(0,0)"/>
<path d="" fill="#7B704F" transform="translate(0,0)"/>
<path d="" fill="#99823E" transform="translate(0,0)"/>
<path d="" fill="#B09034" transform="translate(0,0)"/>
<path d="" fill="#C69F2E" transform="translate(0,0)"/>
<path d="" fill="#868277" transform="translate(0,0)"/>
<path d="" fill="#7C7350" transform="translate(0,0)"/>
<path d="" fill="#858277" transform="translate(0,0)"/>
<path d="" fill="#848378" transform="translate(0,0)"/>
<path d="" fill="#8D8A82" transform="translate(0,0)"/>
<path d="" fill="#7F7D6D" transform="translate(0,0)"/>
<path d="" fill="#8C8A82" transform="translate(0,0)"/>
<path d="" fill="#E7B42B" transform="translate(0,0)"/>
<path d="" fill="#E1AF2B" transform="translate(0,0)"/>
<path d="" fill="#8C8982" transform="translate(0,0)"/>
<path d="" fill="#8D8A84" transform="translate(0,0)"/>
<path d="" fill="#7C7150" transform="translate(0,0)"/>
<path d="" fill="#8C8A82" transform="translate(0,0)"/>
<path d="" fill="#B49235" transform="translate(0,0)"/>
<path d="" fill="#8C8B82" transform="translate(0,0)"/>
<path d="" fill="#989590" transform="translate(0,0)"/>
<path d="" fill="#8C8C82" transform="translate(0,0)"/>
<path d="" fill="#8B8A84" transform="translate(0,0)"/>
<path d="" fill="#A19F9E" transform="translate(0,0)"/>
<path d="" fill="#827D71" transform="translate(0,0)"/>
<path d="" fill="#777155" transform="translate(0,0)"/>
<path d="" fill="#999591" transform="translate(0,0)"/>
<path d="" fill="#8E8B83" transform="translate(0,0)"/>
<path d="" fill="#9E863A" transform="translate(0,0)"/>
<path d="" fill="#FCB912" transform="translate(0,0)"/>
<path d="" fill="#8D8B83" transform="translate(0,0)"/>
<path d="" fill="#8E8B83" transform="translate(0,0)"/>
<path d="" fill="#827F70" transform="translate(0,0)"/>
<path d="" fill="#858376" transform="translate(0,0)"/>
<path d="" fill="#FBBF1C" transform="translate(0,0)"/>
<path d="" fill="#8E8C85" transform="translate(0,0)"/>
<path d="" fill="#7A7252" transform="translate(0,0)"/>
<path d="" fill="#FCB20C" transform="translate(0,0)"/>
<path d="" fill="#FAB50D" transform="translate(0,0)"/>
<path d="" fill="#8E8B84" transform="translate(0,0)"/>
<path d="" fill="#7F744D" transform="translate(0,0)"/>
<path d="" fill="#FCB913" transform="translate(0,0)"/>
<path d="" fill="#FEBF13" transform="translate(0,0)"/>
<path d="" fill="#8E8B84" transform="translate(0,0)"/>
<path d="" fill="#C59E31" transform="translate(0,0)"/>
<path d="" fill="#817D6B" transform="translate(0,0)"/>
<path d="" fill="#8F8C84" transform="translate(0,0)"/>
<path d="" fill="#7A755F" transform="translate(0,0)"/>
<path d="" fill="#8E8C84" transform="translate(0,0)"/>
<path d="" fill="#827E71" transform="translate(0,0)"/>
<path d="" fill="#8D7D41" transform="translate(0,0)"/>
<path d="" fill="#A88C38" transform="translate(0,0)"/>
<path d="" fill="#7D7861" transform="translate(0,0)"/>
<path d="" fill="#878277" transform="translate(0,0)"/>
<path d="" fill="#81754D" transform="translate(0,0)"/>
<path d="" fill="#848172" transform="translate(0,0)"/>
<path d="" fill="#8F8D85" transform="translate(0,0)"/>
<path d="" fill="#7C7351" transform="translate(0,0)"/>
<path d="" fill="#8F7E40" transform="translate(0,0)"/>
<path d="" fill="#807E6C" transform="translate(0,0)"/>
<path d="" fill="#8F8D84" transform="translate(0,0)"/>
<path d="" fill="#7C7450" transform="translate(0,0)"/>
<path d="" fill="#FBBA0F" transform="translate(0,0)"/>
<path d="" fill="#807E6C" transform="translate(0,0)"/>
<path d="" fill="#8F8D85" transform="translate(0,0)"/>
<path d="" fill="#7C7350" transform="translate(0,0)"/>
<path d="" fill="#908C85" transform="translate(0,0)"/>
<path d="" fill="#83754A" transform="translate(0,0)"/>
<path d="" fill="#FABF15" transform="translate(0,0)"/>
<path d="" fill="#868478" transform="translate(0,0)"/>
<path d="" fill="#928F87" transform="translate(0,0)"/>
<path d="" fill="#807E6C" transform="translate(0,0)"/>
<path d="" fill="#8F8E86" transform="translate(0,0)"/>
<path d="" fill="#908C85" transform="translate(0,0)"/>
<path d="" fill="#FABF20" transform="translate(0,0)"/>
<path d="" fill="#817F6E" transform="translate(0,0)"/>
<path d="" fill="#908F86" transform="translate(0,0)"/>
<path d="" fill="#908E86" transform="translate(0,0)"/>
<path d="" fill="#FCB409" transform="translate(0,0)"/>
<path d="" fill="#867748" transform="translate(0,0)"/>
<path d="" fill="#857A49" transform="translate(0,0)"/>
<path d="" fill="#878478" transform="translate(0,0)"/>
<path d="" fill="#807E6D" transform="translate(0,0)"/>
<path d="" fill="#918E86" transform="translate(0,0)"/>
<path d="" fill="#7C7660" transform="translate(0,0)"/>
<path d="" fill="#908E86" transform="translate(0,0)"/>
<path d="" fill="#DEAD2B" transform="translate(0,0)"/>
<path d="" fill="#877B4A" transform="translate(0,0)"/>
<path d="" fill="#817E6E" transform="translate(0,0)"/>
<path d="" fill="#918F87" transform="translate(0,0)"/>
<path d="" fill="#887949" transform="translate(0,0)"/>
<path d="" fill="#8D897E" transform="translate(0,0)"/>
<path d="" fill="#918F86" transform="translate(0,0)"/>
<path d="" fill="#919087" transform="translate(0,0)"/>
<path d="" fill="#928E88" transform="translate(0,0)"/>
<path d="" fill="#918D86" transform="translate(0,0)"/>
<path d="" fill="#8D897E" transform="translate(0,0)"/>
<path d="" fill="#909086" transform="translate(0,0)"/>
<path d="" fill="#858274" transform="translate(0,0)"/>
<path d="" fill="#929087" transform="translate(0,0)"/>
<path d="" fill="#FFC316" transform="translate(0,0)"/>
<path d="" fill="#918F88" transform="translate(0,0)"/>
<path d="" fill="#919086" transform="translate(0,0)"/>
<path d="" fill="#918F87" transform="translate(0,0)"/>
<path d="" fill="#FFC519" transform="translate(0,0)"/>
<path d="" fill="#918E88" transform="translate(0,0)"/>
<path d="" fill="#82784D" transform="translate(0,0)"/>
<path d="" fill="#918F88" transform="translate(0,0)"/>
<path d="" fill="#8B7A4A" transform="translate(0,0)"/>
<path d="" fill="#88857B" transform="translate(0,0)"/>
<path d="" fill="#8D897F" transform="translate(0,0)"/>
<path d="" fill="#929087" transform="translate(0,0)"/>
<path d="" fill="#8B7D4B" transform="translate(0,0)"/>
<path d="" fill="#928F87" transform="translate(0,0)"/>
<path d="" fill="#80806E" transform="translate(0,0)"/>
<path d="" fill="#918F88" transform="translate(0,0)"/>
<path d="" fill="#928F88" transform="translate(0,0)"/>
<path d="" fill="#929087" transform="translate(0,0)"/>
<path d="" fill="#8B7E4A" transform="translate(0,0)"/>
<path d="" fill="#817E6F" transform="translate(0,0)"/>
<path d="" fill="#918F89" transform="translate(0,0)"/>
<path d="" fill="#918F88" transform="translate(0,0)"/>
<path d="" fill="#8C7C4A" transform="translate(0,0)"/>
<path d="" fill="#948247" transform="translate(0,0)"/>
<path d="" fill="#8D7F49" transform="translate(0,0)"/>
<path d="" fill="#FFC21A" transform="translate(0,0)"/>
<path d="" fill="#FFB706" transform="translate(0,0)"/>
<path d="" fill="#929089" transform="translate(0,0)"/>
<path d="" fill="#928E89" transform="translate(0,0)"/>
<path d="" fill="#F9C01E" transform="translate(0,0)"/>
<path d="" fill="#8D7D4B" transform="translate(0,0)"/>
<path d="" fill="#8D8980" transform="translate(0,0)"/>
<path d="" fill="#FBC222" transform="translate(0,0)"/>
<path d="" fill="#F8C327" transform="translate(0,0)"/>
<path d="" fill="#918F89" transform="translate(0,0)"/>
<path d="" fill="#8E8980" transform="translate(0,0)"/>
<path d="" fill="#928F89" transform="translate(0,0)"/>
<path d="" fill="#918E88" transform="translate(0,0)"/>
<path d="" fill="#FEB709" transform="translate(0,0)"/>
<path d="" fill="#908F89" transform="translate(0,0)"/>
<path d="" fill="#877A4E" transform="translate(0,0)"/>
<path d="" fill="#EEBD2F" transform="translate(0,0)"/>
<path d="" fill="#848075" transform="translate(0,0)"/>
<path d="" fill="#918E89" transform="translate(0,0)"/>
<path d="" fill="#87877D" transform="translate(0,0)"/>
<path d="" fill="#F3BF27" transform="translate(0,0)"/>
<path d="" fill="#87857D" transform="translate(0,0)"/>
<path d="" fill="#807D6F" transform="translate(0,0)"/>
<path d="" fill="#919089" transform="translate(0,0)"/>
<path d="" fill="#E9B932" transform="translate(0,0)"/>
<path d="" fill="#928E89" transform="translate(0,0)"/>
<path d="" fill="#84847B" transform="translate(0,0)"/>
<path d="" fill="#FFBB0B" transform="translate(0,0)"/>
<path d="" fill="#7F7E6F" transform="translate(0,0)"/>
<path d="" fill="#908F89" transform="translate(0,0)"/>
<path d="" fill="#E3B635" transform="translate(0,0)"/>
<path d="" fill="#837F76" transform="translate(0,0)"/>
<path d="" fill="#F5BF26" transform="translate(0,0)"/>
<path d="" fill="#FFBB0D" transform="translate(0,0)"/>
<path d="" fill="#90908A" transform="translate(0,0)"/>
<path d="" fill="#FFBC0F" transform="translate(0,0)"/>
<path d="" fill="#DFB336" transform="translate(0,0)"/>
<path d="" fill="#918E89" transform="translate(0,0)"/>
<path d="" fill="#827F75" transform="translate(0,0)"/>
<path d="" fill="#90804A" transform="translate(0,0)"/>
<path d="" fill="#908F8A" transform="translate(0,0)"/>
<path d="" fill="#908E89" transform="translate(0,0)"/>
<path d="" fill="#90804B" transform="translate(0,0)"/>
<path d="" fill="#8F8D89" transform="translate(0,0)"/>
<path d="" fill="#7E7D71" transform="translate(0,0)"/>
<path d="" fill="#87867D" transform="translate(0,0)"/>
<path d="" fill="#908E8A" transform="translate(0,0)"/>
<path d="" fill="#857B4F" transform="translate(0,0)"/>
<path d="" fill="#908D8A" transform="translate(0,0)"/>
<path d="" fill="#D6AD37" transform="translate(0,0)"/>
<path d="" fill="#FFB906" transform="translate(0,0)"/>
<path d="" fill="#FFB805" transform="translate(0,0)"/>
<path d="" fill="#FFBA0C" transform="translate(0,0)"/>
<path d="" fill="#7E7E72" transform="translate(0,0)"/>
<path d="" fill="#908F8A" transform="translate(0,0)"/>
<path d="" fill="#D5AD38" transform="translate(0,0)"/>
<path d="" fill="#908E88" transform="translate(0,0)"/>
<path d="" fill="#FDBF15" transform="translate(0,0)"/>
<path d="" fill="#91814A" transform="translate(0,0)"/>
<path d="" fill="#908D89" transform="translate(0,0)"/>
<path d="" fill="#8F8E89" transform="translate(0,0)"/>
<path d="" fill="#D1AA3A" transform="translate(0,0)"/>
<path d="" fill="#FDC014" transform="translate(0,0)"/>
<path d="" fill="#807E76" transform="translate(0,0)"/>
<path d="" fill="#CFA938" transform="translate(0,0)"/>
<path d="" fill="#8F8E87" transform="translate(0,0)"/>
<path d="" fill="#908D89" transform="translate(0,0)"/>
<path d="" fill="#9E9C9A" transform="translate(0,0)"/>
<path d="" fill="#9E9E9A" transform="translate(0,0)"/>
<path d="" fill="#FFB904" transform="translate(0,0)"/>
<path d="" fill="#D0A839" transform="translate(0,0)"/>
<path d="" fill="#8F8E88" transform="translate(0,0)"/>
<path d="" fill="#908E87" transform="translate(0,0)"/>
<path d="" fill="#7C7764" transform="translate(0,0)"/>
<path d="" fill="#AC9240" transform="translate(0,0)"/>
<path d="" fill="#8F8F87" transform="translate(0,0)"/>
<path d="" fill="#FFBA04" transform="translate(0,0)"/>
<path d="" fill="#91824B" transform="translate(0,0)"/>
<path d="" fill="#908E89" transform="translate(0,0)"/>
<path d="" fill="#887A4F" transform="translate(0,0)"/>
<path d="" fill="#CDA639" transform="translate(0,0)"/>
<path d="" fill="#FFBA05" transform="translate(0,0)"/>
<path d="" fill="#FFBC0B" transform="translate(0,0)"/>
<path d="" fill="#908F8A" transform="translate(0,0)"/>
<path d="" fill="#CFA837" transform="translate(0,0)"/>
<path d="" fill="#FFC117" transform="translate(0,0)"/>
<path d="" fill="#FFBC08" transform="translate(0,0)"/>
<path d="" fill="#7E7E72" transform="translate(0,0)"/>
<path d="" fill="#8F8D8A" transform="translate(0,0)"/>
<path d="" fill="#877B4F" transform="translate(0,0)"/>
<path d="" fill="#CBA53A" transform="translate(0,0)"/>
<path d="" fill="#8F8D8A" transform="translate(0,0)"/>
<path d="" fill="#757054" transform="translate(0,0)"/>
<path d="" fill="#8F8F89" transform="translate(0,0)"/>
<path d="" fill="#FFC012" transform="translate(0,0)"/>
<path d="" fill="#8F8E89" transform="translate(0,0)"/>
<path d="" fill="#9E9D9B" transform="translate(0,0)"/>
<path d="" fill="#877B51" transform="translate(0,0)"/>
<path d="" fill="#C8A33A" transform="translate(0,0)"/>
<path d="" fill="#8F8E89" transform="translate(0,0)"/>
<path d="" fill="#827F78" transform="translate(0,0)"/>
<path d="" fill="#8F8F89" transform="translate(0,0)"/>
<path d="" fill="#FFB905" transform="translate(0,0)"/>
<path d="" fill="#8F8E8A" transform="translate(0,0)"/>
<path d="" fill="#C9A339" transform="translate(0,0)"/>
<path d="" fill="#817E77" transform="translate(0,0)"/>
<path d="" fill="#FFC00C" transform="translate(0,0)"/>
<path d="" fill="#8F8D8A" transform="translate(0,0)"/>
<path d="" fill="#FFB902" transform="translate(0,0)"/>
<path d="" fill="#C8A33B" transform="translate(0,0)"/>
<path d="" fill="#74705D" transform="translate(0,0)"/>
<path d="" fill="#7D7763" transform="translate(0,0)"/>
<path d="" fill="#908E8B" transform="translate(0,0)"/>
<path d="" fill="#9E9C9A" transform="translate(0,0)"/>
<path d="" fill="#C7A13B" transform="translate(0,0)"/>
<path d="" fill="#848179" transform="translate(0,0)"/>
<path d="" fill="#877B4C" transform="translate(0,0)"/>
<path d="" fill="#928048" transform="translate(0,0)"/>
<path d="" fill="#FFBF0B" transform="translate(0,0)"/>
<path d="" fill="#FEC011" transform="translate(0,0)"/>
<path d="" fill="#FFC00C" transform="translate(0,0)"/>
<path d="" fill="#FDC11A" transform="translate(0,0)"/>
<path d="" fill="#83817A" transform="translate(0,0)"/>
<path d="" fill="#908F89" transform="translate(0,0)"/>
<path d="" fill="#908E8A" transform="translate(0,0)"/>
<path d="" fill="#FFC10D" transform="translate(0,0)"/>
<path d="" fill="#C7A23A" transform="translate(0,0)"/>
<path d="" fill="#7F734A" transform="translate(0,0)"/>
<path d="" fill="#908E8B" transform="translate(0,0)"/>
<path d="" fill="#918049" transform="translate(0,0)"/>
<path d="" fill="#828078" transform="translate(0,0)"/>
<path d="" fill="#8C8883" transform="translate(0,0)"/>
<path d="" fill="#9F9C9B" transform="translate(0,0)"/>
<path d="" fill="#FCC219" transform="translate(0,0)"/>
<path d="" fill="#908F8B" transform="translate(0,0)"/>
<path d="" fill="#877A4E" transform="translate(0,0)"/>
<path d="" fill="#C7A03B" transform="translate(0,0)"/>
<path d="" fill="#917F48" transform="translate(0,0)"/>
<path d="" fill="#D0A837" transform="translate(0,0)"/>
<path d="" fill="#FEC119" transform="translate(0,0)"/>
<path d="" fill="#86847D" transform="translate(0,0)"/>
<path d="" fill="#FFB907" transform="translate(0,0)"/>
<path d="" fill="#918248" transform="translate(0,0)"/>
<path d="" fill="#FEC01C" transform="translate(0,0)"/>
<path d="" fill="#82817B" transform="translate(0,0)"/>
<path d="" fill="#908F8A" transform="translate(0,0)"/>
<path d="" fill="#C7A13B" transform="translate(0,0)"/>
<path d="" fill="#84847C" transform="translate(0,0)"/>
<path d="" fill="#908E8B" transform="translate(0,0)"/>
<path d="" fill="#917F48" transform="translate(0,0)"/>
<path d="" fill="#D0A937" transform="translate(0,0)"/>
<path d="" fill="#8F8E8A" transform="translate(0,0)"/>
<path d="" fill="#C6A03C" transform="translate(0,0)"/>
<path d="" fill="#8F8E8A" transform="translate(0,0)"/>
<path d="" fill="#908048" transform="translate(0,0)"/>
<path d="" fill="#FDB505" transform="translate(0,0)"/>
<path d="" fill="#8F8F8A" transform="translate(0,0)"/>
<path d="" fill="#C4A13B" transform="translate(0,0)"/>
<path d="" fill="#908F8A" transform="translate(0,0)"/>
<path d="" fill="#908F8B" transform="translate(0,0)"/>
<path d="" fill="#C79F3B" transform="translate(0,0)"/>
<path d="" fill="#908F8A" transform="translate(0,0)"/>
<path d="" fill="#8F7E48" transform="translate(0,0)"/>
<path d="" fill="#908E8A" transform="translate(0,0)"/>
<path d="" fill="#C7A13B" transform="translate(0,0)"/>
<path d="" fill="#908E8B" transform="translate(0,0)"/>
<path d="" fill="#90908A" transform="translate(0,0)"/>
<path d="" fill="#FEB709" transform="translate(0,0)"/>
<path d="" fill="#7E7F79" transform="translate(0,0)"/>
<path d="" fill="#7D7D74" transform="translate(0,0)"/>
<path d="" fill="#908F8C" transform="translate(0,0)"/>
<path d="" fill="#C6A03C" transform="translate(0,0)"/>
<path d="" fill="#908E8B" transform="translate(0,0)"/>
<path d="" fill="#91908A" transform="translate(0,0)"/>
<path d="" fill="#FEC21C" transform="translate(0,0)"/>
<path d="" fill="#8D8048" transform="translate(0,0)"/>
<path d="" fill="#91908C" transform="translate(0,0)"/>
<path d="" fill="#908E8B" transform="translate(0,0)"/>
<path d="" fill="#91908B" transform="translate(0,0)"/>
<path d="" fill="#84784C" transform="translate(0,0)"/>
<path d="" fill="#918F8D" transform="translate(0,0)"/>
<path d="" fill="#C4A13D" transform="translate(0,0)"/>
<path d="" fill="#908F8C" transform="translate(0,0)"/>
<path d="" fill="#82807A" transform="translate(0,0)"/>
<path d="" fill="#928F8C" transform="translate(0,0)"/>
<path d="" fill="#C39F3D" transform="translate(0,0)"/>
<path d="" fill="#918F8C" transform="translate(0,0)"/>
<path d="" fill="#FFC417" transform="translate(0,0)"/>
<path d="" fill="#91918B" transform="translate(0,0)"/>
<path d="" fill="#83827B" transform="translate(0,0)"/>
<path d="" fill="#928F8D" transform="translate(0,0)"/>
<path d="" fill="#C19F3C" transform="translate(0,0)"/>
<path d="" fill="#C5A239" transform="translate(0,0)"/>
<path d="" fill="#FDC41C" transform="translate(0,0)"/>
<path d="" fill="#FFC519" transform="translate(0,0)"/>
<path d="" fill="#8B8A84" transform="translate(0,0)"/>
<path d="" fill="#7E7D75" transform="translate(0,0)"/>
<path d="" fill="#91918D" transform="translate(0,0)"/>
<path d="" fill="#C29E3B" transform="translate(0,0)"/>
<path d="" fill="#918F8D" transform="translate(0,0)"/>
<path d="" fill="#FEC31A" transform="translate(0,0)"/>
<path d="" fill="#FFB905" transform="translate(0,0)"/>
<path d="" fill="#82807A" transform="translate(0,0)"/>
<path d="" fill="#9D8940" transform="translate(0,0)"/>
<path d="" fill="#FFC519" transform="translate(0,0)"/>
<path d="" fill="#92918C" transform="translate(0,0)"/>
<path d="" fill="#91908D" transform="translate(0,0)"/>
<path d="" fill="#7A735C" transform="translate(0,0)"/>
<path d="" fill="#C19E3E" transform="translate(0,0)"/>
<path d="" fill="#908F8D" transform="translate(0,0)"/>
<path d="" fill="#82784B" transform="translate(0,0)"/>
<path d="" fill="#FEBA06" transform="translate(0,0)"/>
<path d="" fill="#FFBC06" transform="translate(0,0)"/>
<path d="" fill="#92928C" transform="translate(0,0)"/>
<path d="" fill="#92918E" transform="translate(0,0)"/>
<path d="" fill="#FFC318" transform="translate(0,0)"/>
<path d="" fill="#C09E3C" transform="translate(0,0)"/>
<path d="" fill="#FEC61B" transform="translate(0,0)"/>
<path d="" fill="#93918E" transform="translate(0,0)"/>
<path d="" fill="#9D9C9A" transform="translate(0,0)"/>
<path d="" fill="#C09E3D" transform="translate(0,0)"/>
<path d="" fill="#92908D" transform="translate(0,0)"/>
<path d="" fill="#7F7E76" transform="translate(0,0)"/>
<path d="" fill="#93918D" transform="translate(0,0)"/>
<path d="" fill="#92918E" transform="translate(0,0)"/>
<path d="" fill="#9D9B9A" transform="translate(0,0)"/>
<path d="" fill="#80754E" transform="translate(0,0)"/>
<path d="" fill="#BF9E3C" transform="translate(0,0)"/>
<path d="" fill="#92908E" transform="translate(0,0)"/>
<path d="" fill="#92918D" transform="translate(0,0)"/>
<path d="" fill="#BE9B3B" transform="translate(0,0)"/>
<path d="" fill="#FAC01B" transform="translate(0,0)"/>
<path d="" fill="#93918F" transform="translate(0,0)"/>
<path d="" fill="#A09F9E" transform="translate(0,0)"/>
<path d="" fill="#91918F" transform="translate(0,0)"/>
<path d="" fill="#94928D" transform="translate(0,0)"/>
<path d="" fill="#877A49" transform="translate(0,0)"/>
<path d="" fill="#7A7361" transform="translate(0,0)"/>
<path d="" fill="#84847C" transform="translate(0,0)"/>
<path d="" fill="#93928F" transform="translate(0,0)"/>
<path d="" fill="#BC9A3F" transform="translate(0,0)"/>
<path d="" fill="#FFBE0C" transform="translate(0,0)"/>
<path d="" fill="#93938D" transform="translate(0,0)"/>
<path d="" fill="#FEC010" transform="translate(0,0)"/>
<path d="" fill="#939290" transform="translate(0,0)"/>
<path d="" fill="#BC9B3E" transform="translate(0,0)"/>
<path d="" fill="#877948" transform="translate(0,0)"/>
<path d="" fill="#FFC316" transform="translate(0,0)"/>
<path d="" fill="#FFC316" transform="translate(0,0)"/>
<path d="" fill="#FFC214" transform="translate(0,0)"/>
<path d="" fill="#867A4A" transform="translate(0,0)"/>
<path d="" fill="#949390" transform="translate(0,0)"/>
<path d="" fill="#BA9A3E" transform="translate(0,0)"/>
<path d="" fill="#83827D" transform="translate(0,0)"/>
<path d="" fill="#FFBD0B" transform="translate(0,0)"/>
<path d="" fill="#949390" transform="translate(0,0)"/>
<path d="" fill="#9F9E9D" transform="translate(0,0)"/>
<path d="" fill="#B9983D" transform="translate(0,0)"/>
<path d="" fill="#C6A237" transform="translate(0,0)"/>
<path d="" fill="#A3A29F" transform="translate(0,0)"/>
<path d="" fill="#FFC010" transform="translate(0,0)"/>
<path d="" fill="#939290" transform="translate(0,0)"/>
<path d="" fill="#FFC111" transform="translate(0,0)"/>
<path d="" fill="#FFC011" transform="translate(0,0)"/>
<path d="" fill="#FFBD0D" transform="translate(0,0)"/>
<path d="" fill="#B8973D" transform="translate(0,0)"/>
<path d="" fill="#939290" transform="translate(0,0)"/>
<path d="" fill="#FCC11D" transform="translate(0,0)"/>
<path d="" fill="#F9C01C" transform="translate(0,0)"/>
<path d="" fill="#888783" transform="translate(0,0)"/>
<path d="" fill="#7F7E79" transform="translate(0,0)"/>
<path d="" fill="#949390" transform="translate(0,0)"/>
<path d="" fill="#7C744E" transform="translate(0,0)"/>
<path d="" fill="#B5973E" transform="translate(0,0)"/>
<path d="" fill="#939391" transform="translate(0,0)"/>
<path d="" fill="#A78C3E" transform="translate(0,0)"/>
<path d="" fill="#939390" transform="translate(0,0)"/>
<path d="" fill="#BB993C" transform="translate(0,0)"/>
<path d="" fill="#F6C223" transform="translate(0,0)"/>
<path d="" fill="#959490" transform="translate(0,0)"/>
<path d="" fill="#857A4B" transform="translate(0,0)"/>
<path d="" fill="#817F79" transform="translate(0,0)"/>
<path d="" fill="#939390" transform="translate(0,0)"/>
<path d="" fill="#B2943E" transform="translate(0,0)"/>
<path d="" fill="#DDB131" transform="translate(0,0)"/>
<path d="" fill="#FCC21D" transform="translate(0,0)"/>
<path d="" fill="#807F7A" transform="translate(0,0)"/>
<path d="" fill="#949491" transform="translate(0,0)"/>
<path d="" fill="#A78E3F" transform="translate(0,0)"/>
<path d="" fill="#B1933F" transform="translate(0,0)"/>
<path d="" fill="#939391" transform="translate(0,0)"/>
<path d="" fill="#B99A3D" transform="translate(0,0)"/>
<path d="" fill="#DFB132" transform="translate(0,0)"/>
<path d="" fill="#867B4B" transform="translate(0,0)"/>
<path d="" fill="#90918E" transform="translate(0,0)"/>
<path d="" fill="#949592" transform="translate(0,0)"/>
<path d="" fill="#7E754F" transform="translate(0,0)"/>
<path d="" fill="#AE923F" transform="translate(0,0)"/>
<path d="" fill="#988642" transform="translate(0,0)"/>
<path d="" fill="#BC9A3C" transform="translate(0,0)"/>
<path d="" fill="#958441" transform="translate(0,0)"/>
<path d="" fill="#949492" transform="translate(0,0)"/>
<path d="" fill="#7E744F" transform="translate(0,0)"/>
<path d="" fill="#AD913F" transform="translate(0,0)"/>
<path d="" fill="#949392" transform="translate(0,0)"/>
<path d="" fill="#969493" transform="translate(0,0)"/>
<path d="" fill="#867A4A" transform="translate(0,0)"/>
<path d="" fill="#A4A0A2" transform="translate(0,0)"/>
<path d="" fill="#989593" transform="translate(0,0)"/>
<path d="" fill="#959492" transform="translate(0,0)"/>
<path d="" fill="#AB8F3F" transform="translate(0,0)"/>
<path d="" fill="#BC9B3B" transform="translate(0,0)"/>
<path d="" fill="#908D89" transform="translate(0,0)"/>
<path d="" fill="#949491" transform="translate(0,0)"/>
<path d="" fill="#E3B531" transform="translate(0,0)"/>
<path d="" fill="#878680" transform="translate(0,0)"/>
<path d="" fill="#959493" transform="translate(0,0)"/>
<path d="" fill="#AA8D3F" transform="translate(0,0)"/>
<path d="" fill="#7E784E" transform="translate(0,0)"/>
<path d="" fill="#86847F" transform="translate(0,0)"/>
<path d="" fill="#877B4A" transform="translate(0,0)"/>
<path d="" fill="#969591" transform="translate(0,0)"/>
<path d="" fill="#959593" transform="translate(0,0)"/>
<path d="" fill="#A88D3F" transform="translate(0,0)"/>
<path d="" fill="#877949" transform="translate(0,0)"/>
<path d="" fill="#A58B3E" transform="translate(0,0)"/>
<path d="" fill="#969593" transform="translate(0,0)"/>
<path d="" fill="#81774E" transform="translate(0,0)"/>
<path d="" fill="#A88C40" transform="translate(0,0)"/>
<path d="" fill="#877B49" transform="translate(0,0)"/>
<path d="" fill="#897A49" transform="translate(0,0)"/>
<path d="" fill="#BF9F3B" transform="translate(0,0)"/>
<path d="" fill="#969593" transform="translate(0,0)"/>
<path d="" fill="#7F754E" transform="translate(0,0)"/>
<path d="" fill="#A58B3F" transform="translate(0,0)"/>
<path d="" fill="#959492" transform="translate(0,0)"/>
<path d="" fill="#C0A03C" transform="translate(0,0)"/>
<path d="" fill="#FDBF19" transform="translate(0,0)"/>
<path d="" fill="#969693" transform="translate(0,0)"/>
<path d="" fill="#8B8B87" transform="translate(0,0)"/>
<path d="" fill="#82837C" transform="translate(0,0)"/>
<path d="" fill="#969593" transform="translate(0,0)"/>
<path d="" fill="#A4A3A3" transform="translate(0,0)"/>
<path d="" fill="#82774D" transform="translate(0,0)"/>
<path d="" fill="#AE913F" transform="translate(0,0)"/>
<path d="" fill="#A58A3F" transform="translate(0,0)"/>
<path d="" fill="#969593" transform="translate(0,0)"/>
<path d="" fill="#9C8841" transform="translate(0,0)"/>
<path d="" fill="#FDC41E" transform="translate(0,0)"/>
<path d="" fill="#979594" transform="translate(0,0)"/>
<path d="" fill="#7B796C" transform="translate(0,0)"/>
<path d="" fill="#797664" transform="translate(0,0)"/>
<path d="" fill="#83764C" transform="translate(0,0)"/>
<path d="" fill="#A48A3F" transform="translate(0,0)"/>
<path d="" fill="#979594" transform="translate(0,0)"/>
<path d="" fill="#918F8C" transform="translate(0,0)"/>
<path d="" fill="#979595" transform="translate(0,0)"/>
<path d="" fill="#FCC019" transform="translate(0,0)"/>
<path d="" fill="#A28940" transform="translate(0,0)"/>
<path d="" fill="#8B7C49" transform="translate(0,0)"/>
<path d="" fill="#979695" transform="translate(0,0)"/>
<path d="" fill="#A08840" transform="translate(0,0)"/>
<path d="" fill="#8B7C49" transform="translate(0,0)"/>
<path d="" fill="#898781" transform="translate(0,0)"/>
<path d="" fill="#8C7E49" transform="translate(0,0)"/>
<path d="" fill="#84827D" transform="translate(0,0)"/>
<path d="" fill="#979695" transform="translate(0,0)"/>
<path d="" fill="#9E8640" transform="translate(0,0)"/>
<path d="" fill="#837A4D" transform="translate(0,0)"/>
<path d="" fill="#EDBC2E" transform="translate(0,0)"/>
<path d="" fill="#72715E" transform="translate(0,0)"/>
<path d="" fill="#FFBF1A" transform="translate(0,0)"/>
<path d="" fill="#8D7F4A" transform="translate(0,0)"/>
<path d="" fill="#F9C022" transform="translate(0,0)"/>
<path d="" fill="#84847D" transform="translate(0,0)"/>
<path d="" fill="#979695" transform="translate(0,0)"/>
<path d="" fill="#83794E" transform="translate(0,0)"/>
<path d="" fill="#9B8541" transform="translate(0,0)"/>
<path d="" fill="#979595" transform="translate(0,0)"/>
<path d="" fill="#979793" transform="translate(0,0)"/>
<path d="" fill="#746E5B" transform="translate(0,0)"/>
<path d="" fill="#FBBE1B" transform="translate(0,0)"/>
<path d="" fill="#FBBC1C" transform="translate(0,0)"/>
<path d="" fill="#FABF18" transform="translate(0,0)"/>
<path d="" fill="#989896" transform="translate(0,0)"/>
<path d="" fill="#9A8541" transform="translate(0,0)"/>
<path d="" fill="#979695" transform="translate(0,0)"/>
<path d="" fill="#898783" transform="translate(0,0)"/>
<path d="" fill="#999896" transform="translate(0,0)"/>
<path d="" fill="#84784E" transform="translate(0,0)"/>
<path d="" fill="#998341" transform="translate(0,0)"/>
<path d="" fill="#F1BF2C" transform="translate(0,0)"/>
<path d="" fill="#868580" transform="translate(0,0)"/>
<path d="" fill="#989896" transform="translate(0,0)"/>
<path d="" fill="#847A4E" transform="translate(0,0)"/>
<path d="" fill="#FCBE16" transform="translate(0,0)"/>
<path d="" fill="#978242" transform="translate(0,0)"/>
<path d="" fill="#8A8884" transform="translate(0,0)"/>
<path d="" fill="#A38E40" transform="translate(0,0)"/>
<path d="" fill="#A09E9E" transform="translate(0,0)"/>
<path d="" fill="#847950" transform="translate(0,0)"/>
<path d="" fill="#968142" transform="translate(0,0)"/>
<path d="" fill="#8C7F4B" transform="translate(0,0)"/>
<path d="" fill="#999896" transform="translate(0,0)"/>
<path d="" fill="#847B4F" transform="translate(0,0)"/>
<path d="" fill="#947F42" transform="translate(0,0)"/>
<path d="" fill="#FDBD16" transform="translate(0,0)"/>
<path d="" fill="#8B8A84" transform="translate(0,0)"/>
<path d="" fill="#989798" transform="translate(0,0)"/>
<path d="" fill="#907D44" transform="translate(0,0)"/>
<path d="" fill="#878681" transform="translate(0,0)"/>
<path d="" fill="#8C8B87" transform="translate(0,0)"/>
<path d="" fill="#989796" transform="translate(0,0)"/>
<path d="" fill="#8F7E43" transform="translate(0,0)"/>
<path d="" fill="#989896" transform="translate(0,0)"/>
<path d="" fill="#FABE16" transform="translate(0,0)"/>
<path d="" fill="#999995" transform="translate(0,0)"/>
<path d="" fill="#FBC623" transform="translate(0,0)"/>
<path d="" fill="#868681" transform="translate(0,0)"/>
<path d="" fill="#999997" transform="translate(0,0)"/>
<path d="" fill="#8D7C43" transform="translate(0,0)"/>
<path d="" fill="#8B8785" transform="translate(0,0)"/>
<path d="" fill="#9A9997" transform="translate(0,0)"/>
<path d="" fill="#999896" transform="translate(0,0)"/>
<path d="" fill="#8B7C44" transform="translate(0,0)"/>
<path d="" fill="#857746" transform="translate(0,0)"/>
<path d="" fill="#999796" transform="translate(0,0)"/>
<path d="" fill="#FABC19" transform="translate(0,0)"/>
<path d="" fill="#9A9998" transform="translate(0,0)"/>
<path d="" fill="#847B50" transform="translate(0,0)"/>
<path d="" fill="#8B7A44" transform="translate(0,0)"/>
<path d="" fill="#847643" transform="translate(0,0)"/>
<path d="" fill="#999898" transform="translate(0,0)"/>
<path d="" fill="#8C7F4C" transform="translate(0,0)"/>
<path d="" fill="#9A9998" transform="translate(0,0)"/>
<path d="" fill="#867C51" transform="translate(0,0)"/>
<path d="" fill="#887944" transform="translate(0,0)"/>
<path d="" fill="#999897" transform="translate(0,0)"/>
<path d="" fill="#857D51" transform="translate(0,0)"/>
<path d="" fill="#878883" transform="translate(0,0)"/>
<path d="" fill="#9B9A97" transform="translate(0,0)"/>
<path d="" fill="#9A9898" transform="translate(0,0)"/>
<path d="" fill="#857B51" transform="translate(0,0)"/>
<path d="" fill="#877844" transform="translate(0,0)"/>
<path d="" fill="#999898" transform="translate(0,0)"/>
<path d="" fill="#D0AB3C" transform="translate(0,0)"/>
<path d="" fill="#9A9A97" transform="translate(0,0)"/>
<path d="" fill="#878883" transform="translate(0,0)"/>
<path d="" fill="#9A9A99" transform="translate(0,0)"/>
<path d="" fill="#857645" transform="translate(0,0)"/>
<path d="" fill="#8B8B87" transform="translate(0,0)"/>
<path d="" fill="#959492" transform="translate(0,0)"/>
<path d="" fill="#888883" transform="translate(0,0)"/>
<path d="" fill="#9A9A98" transform="translate(0,0)"/>
<path d="" fill="#FDC11A" transform="translate(0,0)"/>
<path d="" fill="#837545" transform="translate(0,0)"/>
<path d="" fill="#8D8C89" transform="translate(0,0)"/>
<path d="" fill="#A48E44" transform="translate(0,0)"/>
<path d="" fill="#FABE17" transform="translate(0,0)"/>
<path d="" fill="#897840" transform="translate(0,0)"/>
<path d="" fill="#8E814E" transform="translate(0,0)"/>
<path d="" fill="#9A9998" transform="translate(0,0)"/>
<path d="" fill="#9C9A99" transform="translate(0,0)"/>
<path d="" fill="#847B53" transform="translate(0,0)"/>
<path d="" fill="#827547" transform="translate(0,0)"/>
<path d="" fill="#92918E" transform="translate(0,0)"/>
<path d="" fill="#8D8B8A" transform="translate(0,0)"/>
<path d="" fill="#9A9B98" transform="translate(0,0)"/>
<path d="" fill="#FDBF18" transform="translate(0,0)"/>
<path d="" fill="#9A9A98" transform="translate(0,0)"/>
<path d="" fill="#817346" transform="translate(0,0)"/>
<path d="" fill="#9A9A99" transform="translate(0,0)"/>
<path d="" fill="#8E8B88" transform="translate(0,0)"/>
<path d="" fill="#9B9B9A" transform="translate(0,0)"/>
<path d="" fill="#807347" transform="translate(0,0)"/>
<path d="" fill="#9A9998" transform="translate(0,0)"/>
<path d="" fill="#90804E" transform="translate(0,0)"/>
<path d="" fill="#9B9B9A" transform="translate(0,0)"/>
<path d="" fill="#7F7248" transform="translate(0,0)"/>
<path d="" fill="#736F5F" transform="translate(0,0)"/>
<path d="" fill="#7D7247" transform="translate(0,0)"/>
<path d="" fill="#A5A5A4" transform="translate(0,0)"/>
<path d="" fill="#939090" transform="translate(0,0)"/>
<path d="" fill="#9D9C9B" transform="translate(0,0)"/>
<path d="" fill="#8B8A86" transform="translate(0,0)"/>
<path d="" fill="#9B9A9A" transform="translate(0,0)"/>
<path d="" fill="#7E7247" transform="translate(0,0)"/>
<path d="" fill="#A58F46" transform="translate(0,0)"/>
<path d="" fill="#92918F" transform="translate(0,0)"/>
<path d="" fill="#9B9A9B" transform="translate(0,0)"/>
<path d="" fill="#7E7149" transform="translate(0,0)"/>
<path d="" fill="#787049" transform="translate(0,0)"/>
<path d="" fill="#929090" transform="translate(0,0)"/>
<path d="" fill="#8F8E8D" transform="translate(0,0)"/>
<path d="" fill="#FBC21A" transform="translate(0,0)"/>
<path d="" fill="#918F8C" transform="translate(0,0)"/>
<path d="" fill="#9B9A9A" transform="translate(0,0)"/>
<path d="" fill="#807961" transform="translate(0,0)"/>
<path d="" fill="#7C714A" transform="translate(0,0)"/>
<path d="" fill="#9C9A9A" transform="translate(0,0)"/>
<path d="" fill="#8F8D8B" transform="translate(0,0)"/>
<path d="" fill="#A5A4A5" transform="translate(0,0)"/>
<path d="" fill="#A48F45" transform="translate(0,0)"/>
<path d="" fill="#FDC019" transform="translate(0,0)"/>
<path d="" fill="#9D9C9B" transform="translate(0,0)"/>
<path d="" fill="#7B7049" transform="translate(0,0)"/>
<path d="" fill="#9B9B9B" transform="translate(0,0)"/>
<path d="" fill="#939290" transform="translate(0,0)"/>
<path d="" fill="#9D9B9B" transform="translate(0,0)"/>
<path d="" fill="#897F58" transform="translate(0,0)"/>
<path d="" fill="#7C6F4C" transform="translate(0,0)"/>
<path d="" fill="#928251" transform="translate(0,0)"/>
<path d="" fill="#9A9795" transform="translate(0,0)"/>
<path d="" fill="#9D9C9B" transform="translate(0,0)"/>
<path d="" fill="#9C9D9B" transform="translate(0,0)"/>
<path d="" fill="#7B714E" transform="translate(0,0)"/>
<path d="" fill="#9C9B9B" transform="translate(0,0)"/>
<path d="" fill="#908E8C" transform="translate(0,0)"/>
<path d="" fill="#91908D" transform="translate(0,0)"/>
<path d="" fill="#999796" transform="translate(0,0)"/>
<path d="" fill="#9D9C9C" transform="translate(0,0)"/>
<path d="" fill="#7B714E" transform="translate(0,0)"/>
<path d="" fill="#8E8D8B" transform="translate(0,0)"/>
<path d="" fill="#9E9D9C" transform="translate(0,0)"/>
<path d="" fill="#8B7F58" transform="translate(0,0)"/>
<path d="" fill="#7B714F" transform="translate(0,0)"/>
<path d="" fill="#786F4E" transform="translate(0,0)"/>
<path d="" fill="#928553" transform="translate(0,0)"/>
<path d="" fill="#92918E" transform="translate(0,0)"/>
<path d="" fill="#9E9D9E" transform="translate(0,0)"/>
<path d="" fill="#7A7052" transform="translate(0,0)"/>
<path d="" fill="#9E9E9C" transform="translate(0,0)"/>
<path d="" fill="#938353" transform="translate(0,0)"/>
<path d="" fill="#9E9E9E" transform="translate(0,0)"/>
<path d="" fill="#8C8259" transform="translate(0,0)"/>
<path d="" fill="#7A7152" transform="translate(0,0)"/>
<path d="" fill="#9E9E9D" transform="translate(0,0)"/>
<path d="" fill="#FFC822" transform="translate(0,0)"/>
<path d="" fill="#797151" transform="translate(0,0)"/>
<path d="" fill="#979595" transform="translate(0,0)"/>
<path d="" fill="#A09E9D" transform="translate(0,0)"/>
<path d="" fill="#7A7250" transform="translate(0,0)"/>
<path d="" fill="#A09F9D" transform="translate(0,0)"/>
<path d="" fill="#8D825B" transform="translate(0,0)"/>
<path d="" fill="#7A7153" transform="translate(0,0)"/>
<path d="" fill="#9E9D9E" transform="translate(0,0)"/>
<path d="" fill="#E5BA36" transform="translate(0,0)"/>
<path d="" fill="#7A7351" transform="translate(0,0)"/>
<path d="" fill="#888683" transform="translate(0,0)"/>
<path d="" fill="#A69149" transform="translate(0,0)"/>
<path d="" fill="#FBCA2B" transform="translate(0,0)"/>
<path d="" fill="#FFCB24" transform="translate(0,0)"/>
<path d="" fill="#968856" transform="translate(0,0)"/>
<path d="" fill="#9F9F9E" transform="translate(0,0)"/>
<path d="" fill="#7B7253" transform="translate(0,0)"/>
<path d="" fill="#7B7254" transform="translate(0,0)"/>
<path d="" fill="#FCCA29" transform="translate(0,0)"/>
<path d="" fill="#FACA28" transform="translate(0,0)"/>
<path d="" fill="#A0A09E" transform="translate(0,0)"/>
<path d="" fill="#9F9F9E" transform="translate(0,0)"/>
<path d="" fill="#8E845C" transform="translate(0,0)"/>
<path d="" fill="#7B7356" transform="translate(0,0)"/>
<path d="" fill="#A09F9D" transform="translate(0,0)"/>
<path d="" fill="#FDCF2D" transform="translate(0,0)"/>
<path d="" fill="#958956" transform="translate(0,0)"/>
<path d="" fill="#9FA09F" transform="translate(0,0)"/>
<path d="" fill="#A9A8A9" transform="translate(0,0)"/>
<path d="" fill="#7D7456" transform="translate(0,0)"/>
<path d="" fill="#8E855B" transform="translate(0,0)"/>
<path d="" fill="#9D8B53" transform="translate(0,0)"/>
<path d="" fill="#A0A09E" transform="translate(0,0)"/>
<path d="" fill="#968957" transform="translate(0,0)"/>
<path d="" fill="#979896" transform="translate(0,0)"/>
<path d="" fill="#9F9F9F" transform="translate(0,0)"/>
<path d="" fill="#939290" transform="translate(0,0)"/>
<path d="" fill="#A0A09F" transform="translate(0,0)"/>
<path d="" fill="#898269" transform="translate(0,0)"/>
<path d="" fill="#8E845D" transform="translate(0,0)"/>
<path d="" fill="#7E7658" transform="translate(0,0)"/>
<path d="" fill="#A09F9F" transform="translate(0,0)"/>
<path d="" fill="#8F865E" transform="translate(0,0)"/>
<path d="" fill="#968857" transform="translate(0,0)"/>
<path d="" fill="#9E8741" transform="translate(0,0)"/>
<path d="" fill="#7D7556" transform="translate(0,0)"/>
<path d="" fill="#A9A8A8" transform="translate(0,0)"/>
<path d="" fill="#A0A19E" transform="translate(0,0)"/>
<path d="" fill="#9B8743" transform="translate(0,0)"/>
<path d="" fill="#7D7556" transform="translate(0,0)"/>
<path d="" fill="#7A7559" transform="translate(0,0)"/>
<path d="" fill="#A09F9F" transform="translate(0,0)"/>
<path d="" fill="#92938F" transform="translate(0,0)"/>
<path d="" fill="#A1A0A0" transform="translate(0,0)"/>
<path d="" fill="#8E8460" transform="translate(0,0)"/>
<path d="" fill="#B4984B" transform="translate(0,0)"/>
<path d="" fill="#F8CA31" transform="translate(0,0)"/>
<path d="" fill="#7D7558" transform="translate(0,0)"/>
<path d="" fill="#A09FA0" transform="translate(0,0)"/>
<path d="" fill="#96885A" transform="translate(0,0)"/>
<path d="" fill="#C4A345" transform="translate(0,0)"/>
<path d="" fill="#91908E" transform="translate(0,0)"/>
<path d="" fill="#7F7653" transform="translate(0,0)"/>
<path d="" fill="#DAB43F" transform="translate(0,0)"/>
<path d="" fill="#A1A19F" transform="translate(0,0)"/>
<path d="" fill="#89867E" transform="translate(0,0)"/>
<path d="" fill="#89826B" transform="translate(0,0)"/>
<path d="" fill="#7D775B" transform="translate(0,0)"/>
<path d="" fill="#7C7A72" transform="translate(0,0)"/>
<path d="" fill="#A09FA0" transform="translate(0,0)"/>
<path d="" fill="#96885B" transform="translate(0,0)"/>
<path d="" fill="#C2A347" transform="translate(0,0)"/>
<path d="" fill="#A5924F" transform="translate(0,0)"/>
<path d="" fill="#7F7655" transform="translate(0,0)"/>
<path d="" fill="#7D775A" transform="translate(0,0)"/>
<path d="" fill="#D8B43F" transform="translate(0,0)"/>
<path d="" fill="#959491" transform="translate(0,0)"/>
<path d="" fill="#A2A29F" transform="translate(0,0)"/>
<path d="" fill="#7F775B" transform="translate(0,0)"/>
<path d="" fill="#A1A1A1" transform="translate(0,0)"/>
<path d="" fill="#989594" transform="translate(0,0)"/>
<path d="" fill="#989796" transform="translate(0,0)"/>
<path d="" fill="#9A8748" transform="translate(0,0)"/>
<path d="" fill="#D8B341" transform="translate(0,0)"/>
<path d="" fill="#959591" transform="translate(0,0)"/>
<path d="" fill="#A2A1A0" transform="translate(0,0)"/>
<path d="" fill="#F1C537" transform="translate(0,0)"/>
<path d="" fill="#7F785E" transform="translate(0,0)"/>
<path d="" fill="#A3A2A2" transform="translate(0,0)"/>
<path d="" fill="#F0C538" transform="translate(0,0)"/>
<path d="" fill="#80795D" transform="translate(0,0)"/>
<path d="" fill="#A2A1A3" transform="translate(0,0)"/>
<path d="" fill="#9A8B5E" transform="translate(0,0)"/>
<path d="" fill="#E8BF3C" transform="translate(0,0)"/>
<path d="" fill="#837857" transform="translate(0,0)"/>
</svg>
